<?xml version="1.0" encoding="UTF-8"?>
<svg width="500px" height="128px" viewBox="0 0 500 128" version="1.1" xmlns="http://www.w3.org/2000/svg" xmlns:xlink="http://www.w3.org/1999/xlink">
    <title>beastmaker_2000</title>
    <g id="Page-1" stroke="none" stroke-width="1" fill="none" fill-rule="evenodd">
        <path d="M15.1806412,5.5 L484.273004,5.5 C492.666414,19.3517977 497.424567,33.8636878 498.543893,49.0367853 C498.840991,53.0641086 498.946483,58.6314733 498.953481,64.9285538 L498.953481,64.9285538 L498.953501,66.2915047 C498.948496,71.098867 498.891453,76.2851908 498.821386,81.5086466 C498.797832,83.3815547 498.781299,85.0975837 498.4271,86.592212 C497.765167,88.2120509 497.677828,88.6823503 497.669166,89.7111605 L497.669166,89.7111605 L497.668489,108 C497.668489,110.242812 497.322224,115.457768 493.14542,120.47908 C490.448175,123.721681 486.749983,126.016218 482.063147,127.373405 L482.063147,127.373405 L249.724994,126.502005 L17.8392302,127.499712 C12.9369174,126.159296 9.09021588,123.823561 6.30822559,120.47908 C2.21676649,115.560369 1.80087435,110.455861 1.78563,108.1446 L1.78563,108.1446 L1.78515625,89.8886719 C1.78515625,88.7289844 1.7262573,88.304261 1.02606187,86.590755 C0.67281873,85.0984165 0.655894582,83.3878243 0.636195414,81.8155897 C0.562193905,76.2852818 0.505150205,71.0989108 0.500145279,66.2920324 L0.500145279,66.2920324 L0.500164366,64.9291023 C0.507162951,58.6314733 0.612654662,53.0641086 0.909752287,49.0367853 C2.02907915,33.8636878 6.78723165,19.3517977 15.1806412,5.5 L15.1806412,5.5 Z" id="Combined-Shape" stroke="#979797" fill="#D8D8D8"></path>
        <path d="" id="Path" stroke="#979797"></path>
        <line x1="0.548859072" y1="83.7450767" x2="497.904787" y2="83.7450767" id="Path-2" stroke="#979797"></line>
        <polyline id="Path-3" stroke="#979797" points="176.386719 6 174.554717 22.8814815 88.4876807 22.8814815 78.5462642 39 1.54885907 39"></polyline>
        <polyline id="Path-3" stroke="#979797" transform="translate(411.000000, 22.500000) scale(-1, 1) translate(-411.000000, -22.500000) " points="498 6 496.176778 22.8814815 410.522193 22.8814815 400.628417 39 324 39"></polyline>
        <g id="left" transform="translate(9.000000, 21.000000)" fill="#D8D8D8" stroke="#979797">
            <g id="bottom" transform="translate(0.000000, 69.000000)">
                <rect id="9" x="154.5" y="0.5" width="37" height="17" rx="8"></rect>
                <rect id="8" x="106.5" y="2.5" width="37" height="17" rx="8"></rect>
                <circle id="7" cx="88" cy="11" r="8.5"></circle>
                <rect id="6" x="0.5" y="2.5" width="68" height="17" rx="8"></rect>
            </g>
            <g id="top">
                <rect id="5" x="156.5" y="29.5" width="37" height="17" rx="8"></rect>
                <rect id="4" x="106.5" y="29.5" width="37" height="17" rx="8"></rect>
                <circle id="3" cx="88" cy="35" r="8.5"></circle>
                <rect id="2" x="0.5" y="29.5" width="68" height="17" rx="8"></rect>
                <rect id="1" x="182.5" y="0.5" width="50" height="17" rx="8"></rect>
            </g>
        </g>
        <g id="center" transform="translate(208.000000, 50.000000)" fill="#D8D8D8" stroke="#979797">
            <rect id="11" x="0.5" y="42.5" width="85" height="17" rx="8"></rect>
            <rect id="10" x="8.5" y="0.5" width="71" height="17" rx="8"></rect>
        </g>
        <g id="right" transform="translate(375.500000, 65.500000) scale(-1, 1) translate(-375.500000, -65.500000) translate(259.000000, 21.000000)" fill="#D8D8D8" stroke="#979797">
            <g id="bottom" transform="translate(0.000000, 69.000000)">
                <rect id="20" x="0.5" y="2.5" width="68" height="17" rx="8"></rect>
                <circle id="19" cx="88" cy="11" r="8.5"></circle>
                <rect id="18" x="106.5" y="2.5" width="37" height="17" rx="8"></rect>
                <rect id="17" x="154.5" y="0.5" width="37" height="17" rx="8"></rect>
            </g>
            <g id="top">
                <rect id="16" x="0.5" y="29.5" width="68" height="17" rx="8"></rect>
                <circle id="15" cx="88" cy="35" r="8.5"></circle>
                <rect id="14" x="106.5" y="29.5" width="37" height="17" rx="8"></rect>
                <rect id="13" x="156.5" y="29.5" width="37" height="17" rx="8"></rect>
                <rect id="12" x="182.5" y="0.5" width="50" height="17" rx="8"></rect>
            </g>
        </g>
    </g>
</svg>
