<?xml version="1.0" encoding="UTF-8"?>
<svg width="474px" height="69px" viewBox="0 0 474 69" version="1.1" xmlns="http://www.w3.org/2000/svg" xmlns:xlink="http://www.w3.org/1999/xlink">
    <title>board</title>
    <g id="Page-1" stroke="none" stroke-width="1" fill="none" fill-rule="evenodd">
        <g id="board" stroke="#979797">
            <rect id="background" fill="#D8D8D8" x="0.5" y="0.5" width="473" height="68" rx="34"></rect>
            <g id="holds" transform="translate(9.522145, 0.497496)">
                <g id="right" transform="translate(336.208975, 26.251252) scale(-1, 1) translate(-336.208975, -26.251252) translate(218.000000, 0.000000)">
                    <rect id="10" x="9.97785522" y="35.0025042" width="186" height="17" rx="8.5"></rect>
                    <rect id="9" fill="#D8D8D8" x="9.97785522" y="35.0025042" width="132" height="17" rx="8.5"></rect>
                    <rect id="8" fill="#D8D8D8" x="9.97785522" y="35.0025042" width="77" height="17" rx="8.5"></rect>
                    <path d="M98.2867945,2.30926389e-14 C106.464058,0.826176091 111.861078,2.33002007 114.477855,4.51153193 C117.479718,7.01407582 116.447845,14.4368421 120.220754,19.2544926 C121.381212,20.7362891 122.882422,21.696266 125.477855,22.0392651 C136.112793,22.0392651 167.617523,22.0392651 180.995934,22.0392651 C185.477855,20.2665354 190.056828,5.38380757 192.679515,2.50513712 C194.350011,1.53445351 197.621503,0.699407799 202.49399,2.30926389e-14 L236.41795,2.30926389e-14 L98.2867945,2.30926389e-14 Z" id="7"></path>
                    <path d="M98.2867945,2.84217094e-14 C106.464058,0.826176091 111.861078,2.33002007 114.477855,4.51153193 C116.152075,5.90726836 116.571564,8.83348652 117.269682,11.9846435 C115.408464,11.9846435 76.3185701,11.6629732 7.10542736e-15,11.0196325 C1.20636153,9.46066739 3.58492869,7.47536261 7.13570147,5.0637182 C7.94419116,4.62694591 9.0955937,3.91395821 10.4722203,3.26233757 C12.1984591,2.44522946 14.2203615,1.68726203 15.6986308,1.26621382 C16.6315179,1.00050414 17.8986039,0.646650224 19.741362,0.390963335 C20.526551,0.282016565 21.9304221,0.151695453 23.9529753,2.84217094e-14 L98.2867945,2.84217094e-14 Z" id="6"></path>
                </g>
                <g id="left" transform="translate(-0.000000, 0.000000)">
                    <rect id="5" x="9.97785522" y="35.0025042" width="186" height="17" rx="8.5"></rect>
                    <rect id="4" fill="#D8D8D8" x="9.97785522" y="35.0025042" width="132" height="17" rx="8.5"></rect>
                    <rect id="3" fill="#D8D8D8" x="9.97785522" y="35.0025042" width="77" height="17" rx="8.5"></rect>
                    <path d="M98.2867945,2.30926389e-14 C106.464058,0.826176091 111.861078,2.33002007 114.477855,4.51153193 C117.479718,7.01407582 116.447845,14.4368421 120.220754,19.2544926 C121.381212,20.7362891 122.882422,21.696266 125.477855,22.0392651 C136.112793,22.0392651 167.617523,22.0392651 180.995934,22.0392651 C185.477855,20.2665354 190.056828,5.38380757 192.679515,2.50513712 C194.350011,1.53445351 197.621503,0.699407799 202.49399,2.30926389e-14 L236.41795,2.30926389e-14 L98.2867945,2.30926389e-14 Z" id="2"></path>
                    <path d="M98.2867945,2.84217094e-14 C106.464058,0.826176091 111.861078,2.33002007 114.477855,4.51153193 C116.152075,5.90726836 116.571564,8.83348652 117.269682,11.9846435 C115.408464,11.9846435 76.3185701,11.6629732 7.10542736e-15,11.0196325 C1.20636153,9.46066739 3.58492869,7.47536261 7.13570147,5.0637182 C7.94419116,4.62694591 9.0955937,3.91395821 10.4722203,3.26233757 C12.1984591,2.44522946 14.2203615,1.68726203 15.6986308,1.26621382 C16.6315179,1.00050414 17.8986039,0.646650224 19.741362,0.390963335 C20.526551,0.282016565 21.9304221,0.151695453 23.9529753,2.84217094e-14 L98.2867945,2.84217094e-14 Z" id="1"></path>
                </g>
            </g>
            <g id="logo-+-letters" transform="translate(218.000000, 23.000000)">
                <g id="logo" transform="translate(2.000000, 0.000000)">
                    <polyline id="Path-2" points="0 16.0034312 12.0779683 0 22 16.0034312"></polyline>
                    <polyline id="Path-2" points="11 16.0034312 23.0779683 5.86197757e-14 33 16.0034312"></polyline>
                </g>
                <g id="letters" transform="translate(0.000000, 19.000000)" stroke-width="0.5">
                    <polygon id="letter---M" points="0 8 0.0027532768 5.68434189e-14 1.60380815 5.68434189e-14 3.75748036 4 6.06883461 5.68434189e-14 7.68735405 5.68434189e-14 7.68735405 7.99657205 6.06883461 7.99657205 6.06883461 3.25130669 3.75748036 6.55573352 1.60380815 3.25130669 1.60380815 8"></polygon>
                    <g id="letter---A" transform="translate(8.796780, 0.000000)">
                        <polygon id="Path-4" points="0 8 2.07485251 0 3.72100669 0 5.62922927 8 3.98900011 8 3.38315214 5.72059538 2.21767534 5.72059538 1.60495247 8"></polygon>
                        <polygon id="Path-5" points="3.1882796 4.53891288 2.40385903 4.53891288 2.81461463 2.3943023"></polygon>
                    </g>
                    <g id="letter---A" transform="translate(31.796780, 0.000000)">
                        <polygon id="Path-4" points="0 8 2.07485251 0 3.72100669 0 5.62922927 8 3.98900011 8 3.38315214 5.72059538 2.21767534 5.72059538 1.60495247 8"></polygon>
                        <polygon id="Path-5" points="3.1882796 4.53891288 2.40385903 4.53891288 2.81461463 2.3943023"></polygon>
                    </g>
                    <polygon id="Path-3" points="15.7155973 8 15.7155973 5.68434189e-14 16.8 5.68434189e-14 18.3331283 3.74137267 18.3331283 5.68434189e-14 19.5324951 5.68434189e-14 19.5324951 8 18.7055355 8 16.9961184 4 16.9961184 8"></polygon>
                    <path d="M21.3,3.58113539e-12 L21.3,7 C21.3,7.55228475 21.7477153,8 22.3,8 L24.6897957,8 C25.2420804,8 25.6897957,7.55228475 25.6897957,7 L25.6897957,3.58113539e-12 L25.6897957,3.58113539e-12 L24.4553024,3.58113539e-12 L24.4553024,6.55149393 C23.2503565,6.55149393 22.6478835,6.55149393 22.6478835,6.55149393 C22.6478835,6.55149393 22.6478835,4.36766262 22.6478835,3.58113539e-12 L21.3,3.58113539e-12 Z" id="Path-6"></path>
                    <polygon id="Path-7" points="26.9283334 5.68434189e-14 28.3380189 8 29.7594866 8 31.2658525 5.68434189e-14 29.904177 5.68434189e-14 29.097093 5.17638444 28.0638338 5.68434189e-14"></polygon>
                </g>
            </g>
        </g>
    </g>
</svg>
