<?xml version="1.0" encoding="UTF-8"?>
<svg width="1903px" height="720px" viewBox="0 0 1903 720" version="1.1" xmlns="http://www.w3.org/2000/svg" xmlns:xlink="http://www.w3.org/1999/xlink">
    <title>so_ill_all_chalk_no_action</title>
    <g id="Page-1" stroke="none" stroke-width="1" fill="none" fill-rule="evenodd">
        <g id="board" transform="translate(1.000000, 1.238789)">
            <g id="background" transform="translate(0.005354, 0.035779)">
                <path d="M1203.84908,51.9064098 C1208.71393,50.8494953 1212.20662,49.8702078 1214.32714,48.9685472 C1216.44766,48.0668865 1219.31091,46.343582 1222.91688,43.7986335 L1245.22684,26.4443861 C1248.20393,24.2093561 1250.73054,22.783154 1252.80667,22.1657797 C1254.88279,21.5484054 1258.17073,21.2455436 1262.67048,21.2571943 C1272.0802,21.2520043 1280.91297,21.2479041 1289.16879,21.2448939 L1291.5119,21.2440635 C1292.6756,21.2436631 1293.82753,21.243285 1294.96769,21.2429291 L1297.23229,21.242247 C1297.60711,21.2421383 1297.98062,21.242032 1298.35283,21.2419282 L1301.66732,21.2410607 C1302.03167,21.2409717 1302.39471,21.2408852 1302.75645,21.2408012 L1305.97675,21.2401117 C1306.33063,21.2400425 1306.68321,21.2399757 1307.03448,21.2399115 L1313.21604,21.2390218 C1313.55161,21.2389872 1313.88587,21.238955 1314.21882,21.2389254 L1325.63998,21.2389254 C1325.94153,21.238955 1326.24178,21.2389872 1326.54072,21.2390218 L1331.78031,21.2399115 C1332.06355,21.2399757 1332.34548,21.2400425 1332.62611,21.2401117 L1335.11639,21.2408012 C1335.38916,21.2408852 1335.66062,21.2409717 1335.93078,21.2410607 L1338.32686,21.2419282 C1338.58917,21.242032 1338.85017,21.2421383 1339.10986,21.242247 L1340.6523,21.2429291 C1341.41567,21.243285 1342.16727,21.2436631 1342.90709,21.2440635 L1344.37103,21.2448939 C1349.43989,21.2479041 1353.9318,21.2520043 1357.84676,21.2571943 C1395.62801,21.3072806 1426.58092,21.5926179 1450.51286,21.2571943 C1492.15818,20.673505 1523.2622,19.3599769 1543.82493,17.3166102 C1615.66384,8.69359938 1655.13868,3.88791751 1662.24946,2.89956464 C1667.09078,2.22665115 1680.42268,0.75094953 1702.36108,0.142137888 C1705.4677,0.0559261495 1709.66782,0.00877910487 1714.96145,0.000696754355 L1718.38757,0.000696754355 C1724.13368,0.00877910487 1730.9733,0.0559261495 1738.90642,0.142137888 C1757.29426,0.979516572 1771.63065,2.40817871 1781.91557,4.42812429 C1797.34296,7.45804268 1816.74108,11.9536291 1826.3534,17.3166102 C1835.96572,22.6795914 1848.80007,32.3570903 1857.37983,45.0918917 C1863.09967,53.5817592 1868.49954,67.6889574 1873.57945,87.4134861 C1875.81474,101.861361 1876.93239,112.605179 1876.93239,119.644939 C1876.93239,130.20458 1875.97358,141.529359 1873.57945,148.629533 C1871.18532,155.729708 1864.95071,168.666158 1859.31355,178.15969 C1853.6764,187.653221 1846.12786,195.251716 1843.59142,199.132386 C1841.05498,203.013055 1838.98921,208.310707 1838.23505,215.866203 C1837.48088,223.421698 1838.23505,235.085589 1840.36595,241.46461 C1841.90494,246.07168 1845.22311,256.394014 1848.50641,266.926582 L1849.26265,269.358401 L1849.26265,269.358401 L1849.63876,270.572412 C1850.51405,273.401432 1851.37165,276.19965 1852.17614,278.859632 C1854.31396,285.928127 1857.57154,295.718882 1860.90444,308.725431 C1861.54929,311.241969 1862.39284,315.349111 1863.43507,321.046858 C1864.86257,329.176147 1865.86113,335.296153 1866.43073,339.406876 C1867.00034,343.517599 1867.70951,349.721841 1868.55824,358.019602 C1868.30201,366.190242 1867.59284,372.048705 1866.43073,375.59499 C1865.26862,379.141276 1862.89623,382.686477 1859.31355,386.230592 C1855.68509,390.734602 1851.10674,395.56889 1845.57848,400.733455 C1840.05023,405.89802 1831.49664,413.331767 1819.91771,423.034698 C1813.17044,429.706402 1808.92966,436.072286 1807.19535,442.132352 C1805.46104,448.192418 1805.46104,456.644818 1807.19535,467.489552 C1812.13417,482.068865 1817.62422,495.712815 1823.6655,508.421402 C1827.97287,517.482514 1841.39794,540.362192 1860.90444,579.417976 C1864.18939,585.995085 1869.64375,595.259076 1875.56138,608.186863 C1877.90305,613.302518 1881.59496,622.257554 1886.63712,635.051971 C1890.3255,646.450589 1892.16969,655.059701 1892.16969,660.879309 L1892.16909,662.085131 C1892.15714,669.859736 1891.90623,672.564345 1886.63712,683.046948 C1876.93239,693.619291 1865.16571,705.145461 1827.28702,712.765375 C1811.68562,715.90385 1793.45098,718.714854 1774.63741,717.975323 C1770.5997,717.816607 1767.61593,717.712955 1764.55504,717.446802 L1764.01385,717.398103 C1763.92344,717.389691 1763.83291,717.381126 1763.74222,717.372405 L1763.19604,717.318147 C1757.80269,716.765191 1751.67624,715.626557 1738.90642,712.765375 C1731.13029,710.664149 1722.06158,706.732956 1716.75882,701.565574 C1712.84571,697.752364 1709.19737,690.428468 1705.8138,679.593886 C1705.54838,671.934448 1706.21622,663.494834 1707.81733,654.275042 C1709.41843,645.05525 1712.39893,632.486324 1716.75882,616.568265 C1718.16321,610.860183 1719.19476,603.091204 1719.85348,593.261327 C1720.10756,589.469803 1720.38,585.348041 1720.62875,581.1782 L1720.71073,579.78686 L1720.71073,579.78686 L1720.79061,578.39428 L1720.79061,578.39428 L1720.86804,577.002784 L1720.86804,577.002784 L1720.94268,575.614693 C1721.47892,565.453521 1721.76182,555.754387 1721.1769,550.638579 C1720.24635,542.499795 1717.42146,538.972652 1713.21074,535.162824 C1709.00001,531.352996 1703.88835,529.352572 1696.12427,527.971178 C1688.36019,526.589784 1505.10785,530.806228 1498.44233,530.806228 C1491.7768,530.806228 1487.61888,532.222059 1482.09424,533.976208 C1478.41114,535.145641 1472.89328,537.571225 1465.54064,541.252959 C1458.91292,545.972483 1453.90366,549.101023 1450.51286,550.638579 C1445.42666,552.944914 1439.85304,554.982022 1435.2637,554.982022 C1430.67437,554.982022 1352.725,556.464069 1311.37994,556.464069 C1283.81656,556.464069 1258.83994,555.970054 1236.45006,554.982022 C1229.95069,554.049079 1224.38443,552.601265 1219.75131,550.638579 C1215.11818,548.675894 1207.74572,544.642611 1197.63393,538.538731 C1192.09817,534.671474 1187.29975,532.093973 1183.23868,530.806228 C1179.17761,529.518483 1172.86732,528.573467 1164.30779,527.971178 L1137.15179,527.971178 C1131.88329,527.971178 1124.7752,527.936832 1117.49134,527.904203 L1116.24127,527.898633 C1115.19863,527.894016 1114.15434,527.889477 1113.11325,527.88512 L1111.86579,527.879986 C1107.50726,527.862369 1103.23947,527.848709 1099.42183,527.846795 L1097.81431,527.846717 C1092.2041,527.849157 1087.75834,527.881457 1085.74864,527.971178 C1079.46833,528.251557 1077.56198,529.361936 1073.64849,530.806228 C1071.03949,531.769089 1067.70513,533.543173 1063.6454,536.128478 C1055.90654,541.701094 1049.65319,545.186472 1044.88537,546.584611 C1037.73363,548.68182 1030.62308,548.870136 1021.67576,548.870136 L870.493924,548.870136 C861.546613,548.870136 854.436058,548.68182 847.28432,546.584611 C842.516495,545.186472 836.26315,541.701094 828.524285,536.128478 C824.464558,533.543173 821.130197,531.769089 818.521203,530.806228 C814.607711,529.361936 812.70136,528.251557 806.421047,527.971178 C804.411347,527.881457 799.965584,527.849157 794.355381,527.846717 L792.747856,527.846795 C787.657666,527.849347 781.767224,527.872781 775.928418,527.898633 L774.678346,527.904203 C767.394491,527.936832 760.286394,527.971178 755.017894,527.971178 L727.861902,527.971178 C719.302373,528.573467 712.992074,529.518483 708.931004,530.806228 C704.869934,532.093973 700.071518,534.671474 694.535754,538.538731 C684.423966,544.642611 677.051508,548.675894 672.418381,550.638579 C667.785254,552.601265 662.219002,554.049079 655.719624,554.982022 C633.329753,555.970054 608.353129,556.464069 580.789752,556.464069 C566.73243,556.464069 548.443651,556.292745 530.245453,556.066596 L527.035826,556.026142 C492.828604,555.589069 459.843161,554.982022 456.905986,554.982022 C452.31665,554.982022 446.743024,552.944914 441.656824,550.638579 C438.266025,549.101023 433.256765,545.972483 426.629046,541.252959 C419.276411,537.571225 413.758546,535.145641 410.075451,533.976208 C404.550807,532.222059 400.392892,530.806228 393.727363,530.806228 C387.061833,530.806228 203.809493,526.589784 196.045418,527.971178 C188.281343,529.352572 183.169676,531.352996 178.95895,535.162824 C174.748223,538.972652 171.923343,542.499795 170.992788,550.638579 C170.38128,555.986924 170.718281,566.344731 171.301646,577.002784 L171.418732,579.09058 C171.432047,579.322693 171.445457,579.554802 171.458955,579.78686 L171.540936,581.1782 C171.789683,585.348041 172.062131,589.469803 172.316209,593.261327 C172.974928,603.091204 174.006482,610.860183 175.410869,616.568265 C179.770756,632.486324 182.751253,645.05525 184.352361,654.275042 C185.953468,663.494834 186.62131,671.934448 186.355887,679.593886 C182.972322,690.428468 179.323982,697.752364 175.410869,701.565574 C170.108106,706.732956 161.0394,710.664149 153.263272,712.765375 C145.255076,714.559676 139.859572,715.676536 135.619098,716.396345 L134.941348,716.509635 C132.714393,716.875962 130.801898,717.130704 128.973644,717.318147 L128.427464,717.372405 C127.974037,717.416012 127.524436,717.455689 127.075064,717.492128 L126.535697,717.534346 C123.837111,717.738106 121.094967,717.835279 117.532278,717.975323 C98.7187113,718.714854 80.4840705,715.90385 64.8826705,712.765375 C27.0039736,705.145461 15.2372994,693.619291 5.53256623,683.046948 C0.263455535,672.564345 0.0125455017,669.859736 0.000597404841,662.085131 L5.68434189e-14,660.879309 C5.68434189e-14,655.059701 1.84418874,646.450589 5.53256623,635.051971 C10.5747281,622.257554 14.2666419,613.302518 16.6083077,608.186863 C22.5259384,595.259076 27.9803004,585.995085 31.2652519,579.417976 C50.7717477,540.362192 64.1968173,517.482514 68.5041925,508.421402 C74.5454653,495.712815 80.0355137,482.068865 84.9743377,467.489552 C86.7086444,456.644818 86.7086444,448.192418 84.9743377,442.132352 C83.2400309,436.072286 78.9992435,429.706402 72.2519753,423.034698 C60.6730467,413.331767 52.1194564,405.89802 46.5912044,400.733455 C41.0629524,395.56889 36.4845957,390.734602 32.8561342,386.230592 C29.2734591,382.686477 26.9010661,379.141276 25.7389554,375.59499 C24.5768447,372.048705 23.8676761,366.190242 23.6114496,358.019602 C24.4601801,349.721841 25.1693488,343.517599 25.7389554,339.406876 C26.3085621,335.296153 27.307116,329.176147 28.734617,321.046858 C29.7768495,315.349111 30.6203944,311.241969 31.2652519,308.725431 C34.5981529,295.718882 37.8557287,285.928127 39.9935477,278.859632 C40.9704329,275.629654 42.0256162,272.195849 43.0957123,268.750569 L43.4739093,267.534425 C46.8182957,256.793141 50.2351502,246.160278 51.8037339,241.46461 C53.9346401,235.085589 54.6888051,223.421698 53.9346401,215.866203 C53.1804751,208.310707 51.1147132,203.013055 48.5782687,199.132386 C46.0418243,195.251716 38.4932869,187.653221 32.8561342,178.15969 C27.2189815,168.666158 20.9843711,155.729708 18.5902404,148.629533 C16.1961097,141.529359 15.2372994,130.20458 15.2372994,119.644939 C15.2372994,112.605179 16.3549464,101.861361 18.5902404,87.4134861 C23.6701453,67.6889574 29.0700173,53.5817592 34.7898563,45.0918917 C43.3696149,32.3570903 56.2039632,22.6795914 65.8162832,17.3166102 C75.4286033,11.9536291 94.8267304,7.45804268 110.254118,4.42812429 C120.539043,2.40817871 134.875427,0.979516572 153.263272,0.142137888 C161.196389,0.0559261495 168.036003,0.00877910487 173.782115,0.000696754355 L177.20824,0.000696754355 C182.501868,0.00877910487 186.701992,0.0559261495 189.808613,0.142137888 C211.747008,0.75094953 225.078909,2.22665115 229.920233,2.89956464 C237.031007,3.88791751 276.505848,8.69359938 348.344757,17.3166102 C368.90749,19.3599769 400.011512,20.673505 441.656824,21.2571943 C465.588772,21.5926179 496.541682,21.3072806 534.322926,21.2571943 C538.237885,21.2520043 542.729795,21.2479041 547.798654,21.2448939 L549.262599,21.2440635 C550.002421,21.2436631 550.754018,21.243285 551.517389,21.2429291 L553.05983,21.242247 C553.31952,21.2421383 553.580519,21.242032 553.842826,21.2419282 L556.238909,21.2410607 C556.509065,21.2409717 556.78053,21.2408852 557.053303,21.2408012 L559.543582,21.2401117 C559.824205,21.2400425 560.106136,21.2399757 560.389375,21.2399115 L565.628972,21.2390218 C565.92791,21.2389872 566.228157,21.238955 566.529712,21.2389254 L577.950866,21.2389254 C578.283819,21.238955 578.618081,21.2389872 578.953651,21.2390218 L585.135207,21.2399115 C585.486477,21.2399757 585.839055,21.2400425 586.192941,21.2401117 L589.413238,21.2408012 C589.774974,21.2408852 590.138018,21.2409717 590.50237,21.2410607 L593.816863,21.2419282 C594.189065,21.242032 594.562575,21.2421383 594.937393,21.242247 L597.202003,21.2429291 C598.342158,21.243285 599.494087,21.2436631 600.65779,21.2440635 L603.000897,21.2448939 C611.256716,21.2479041 620.089486,21.2520043 629.499205,21.2571943 C633.998956,21.2455436 637.286894,21.5484054 639.363019,22.1657797 C641.439144,22.783154 643.965755,24.2093561 646.942851,26.4443861 L646.942851,26.4443861 L669.252806,43.7986335 C672.858783,46.343582 675.722031,48.0668865 677.842549,48.9685472 C679.963067,49.8702078 683.455755,50.8494953 688.32061,51.9064098 L688.32061,51.9064098 L1203.84908,51.9064098 Z" id="Combined-Shape" stroke="#979797" fill="#D8D8D8"></path>
                <g id="logo" transform="translate(843.994646, 255.725431)">
                    <ellipse id="Oval" stroke="#979797" cx="107.5" cy="101.5" rx="89" ry="87"></ellipse>
                    <ellipse id="Oval" stroke="#979797" cx="107.5" cy="102.5" rx="107" ry="102"></ellipse>
                    <path d="M73.9943757,154.722059 L86,154.722059 C87.3068168,146.572411 88.7858201,140.81601 90.4370097,137.452854 C92.0881993,134.089699 95.4704456,129.944672 100.583748,125.017772 C107.579771,121.368669 113.212656,119.544117 117.482404,119.544117 C121.752152,119.544117 127.508144,121.368669 134.750378,125.017772 C137.61165,128.436719 139.626596,131.20086 140.795217,133.310195 C141.963838,135.41953 142.691704,137.606103 142.978814,139.869915 L142.978814,152.842236 L155.317252,152.842236 L156.797937,149.828444 L153.961062,143.919615 L153.961062,131.438048 L150.847838,127.49563 L150.847838,119.544117 L156.797937,107.69964 L148.284754,92.7388225 L134.750378,88.0088309 L110.342995,85.7416554 L100.583748,80.59623 L100.583748,70.6735247 C101.659174,68.3533739 103.660432,66.8828778 106.587521,66.2620364 C109.51461,65.641195 114.446321,65.641195 121.382652,66.2620364 C125.43802,67.7480904 128.986391,69.6894334 132.027763,72.0860653 C135.069136,74.4826972 139.720701,78.8746409 145.982459,85.2618963 L148.284754,85.7416554 C146.296609,79.2584773 143.800097,74.235767 140.795217,70.6735247 C137.790338,67.1112823 131.915068,62.2093614 123.169407,55.967762 C129.10118,58.9528216 133.85615,61.8003263 137.434316,64.5102761 C141.012483,67.2202259 145.483657,71.3602066 150.847838,76.9302181 L149.777959,70.6735247 C148.212926,67.4442177 146.248084,64.4036787 143.883431,61.5519076 C141.518779,58.7001365 137.56689,54.6458508 132.027763,49.3890505 C124.809152,45.423268 119.240871,43.031245 115.322919,42.2129816 C111.404967,41.3947181 105.519932,41.3947181 97.6678137,42.2129816 C92.8682148,42.7194499 89.487576,43.1772103 87.5258974,43.5862629 C85.5642188,43.9953154 83.1011348,44.756098 80.1366454,45.8686107 C76.9221346,47.9023479 74.541378,49.5821889 72.9943757,50.9081335 C71.4473733,52.234078 69.9005122,53.9206209 68.3537921,55.967762 L63.1550259,66.2620364 L61.6013173,74.2008863 L58.9978499,80.59623 L63.1550259,85.7416554 L64.8596045,92.7388225 L63.1550259,98.4675201 L64.8596045,101.5 L70.0555495,96.3012281 L71.5396952,85.7416554 L77.6305268,85.7416554 L77.6305268,90.4841375 L73.9943757,96.3012281 L71.5396952,102.5 L70.0555495,114.213639 C71.0353185,117.526468 72.0149272,119.881372 72.9943757,121.278352 C73.9738241,122.675332 75.5192078,123.921805 77.6305268,125.017772 C75.660331,132.218714 74.4482806,137.673195 73.9943757,141.381216 C73.5404707,145.089236 73.5404707,149.536184 73.9943757,154.722059 Z" id="Path-4" stroke="#979797"></path>
                    <path d="M70.7321355,69.323133 L73.6837947,69.323133 L73.6837947,66.1724953 L71.8881694,66.1724953 C71.3969416,66.9104038 71.0729074,67.4930833 70.916067,67.9205339 C70.7592265,68.3479844 70.697916,68.8155175 70.7321355,69.323133 Z" id="Path-5" fill="#979797"></path>
                </g>
            </g>
            <g id="left" transform="translate(34.795210, 0.000000)">
                <path d="M685.828216,313.424568 C703.451562,312.497274 714.699227,312.108742 719.571184,312.260967 C729.086822,312.558284 746.764636,315.413883 752.854739,323.697286 C758.991542,332.044208 769.808748,354.482548 773.459743,371.138256 C773.778403,372.591973 774.104887,374.303023 774.439213,376.271404 L774.628099,377.405759 C776.314433,387.730159 778.196883,404.487813 780.277591,427.678319 C780.758793,433.041551 779.02056,438.092092 775.821219,441.922126 C772.621878,445.752159 767.961429,448.361685 762.598197,448.842888 C761.898628,448.905655 761.196179,448.930579 760.493922,448.917551 L760.493922,448.917551 L689.244199,447.595779 C684.235953,447.50287 679.670326,445.520012 676.255299,442.312222 C672.840272,439.104431 670.575844,434.671707 670.169995,429.679067 C668.695573,411.541155 667.812288,397.807776 667.520537,388.478911 C667.335689,382.568314 667.240437,373.698044 667.234622,361.86839 L667.234622,361.86839 L667.234835,359.138035 C667.239485,351.722384 667.276783,343.227325 667.346726,333.652898 L667.346726,333.652898 L667.353381,332.75205 C667.391885,327.594611 669.435365,322.898242 672.756833,319.423482 C676.078301,315.948722 680.677758,313.695571 685.828216,313.424568 Z" id="11" stroke="#979797"></path>
                <rect id="10" stroke="#979797" x="410.70479" y="429.261211" width="213" height="57" rx="20"></rect>
                <path d="M153.196286,423.604543 L344.04377,426.850809 L347.20479,426.850809 C352.589566,426.850809 357.464566,429.033421 360.993372,432.562227 C364.522178,436.091033 366.70479,440.966033 366.70479,446.350809 L366.70479,446.350809 L366.70479,460.761211 C366.70479,466.145987 364.522178,471.020987 360.993372,474.549793 C357.464566,478.078599 352.589566,480.261211 347.20479,480.261211 L347.20479,480.261211 L153.20479,480.261211 C147.820014,480.261211 142.945014,478.078599 139.416208,474.549793 C135.887402,471.020987 133.70479,466.145987 133.70479,460.761211 L133.70479,460.761211 L133.70479,443.104615 C133.70479,437.719839 135.887402,432.844839 139.416208,429.316033 C142.945014,425.787227 147.820014,423.604615 153.196286,423.604543 L153.196286,423.604543 Z" id="9" stroke="#979797"></path>
                <rect id="8" stroke="#979797" x="332.70479" y="312.261211" width="264" height="61" rx="20"></rect>
                <rect id="7" stroke="#979797" x="211.70479" y="300.261211" width="79" height="78" rx="20"></rect>
                <path d="M150.298618,315.261211 C154.578825,315.261211 158.453825,316.996107 161.258773,319.801056 C164.063721,322.606004 165.798618,326.481004 165.798618,330.761211 L165.798618,330.761211 L165.798618,356.761211 C165.798618,360.489133 164.287579,363.864133 161.844559,366.307152 C159.40154,368.750172 156.02654,370.261211 152.298618,370.261211 L152.298618,370.261211 L57.2986177,370.261211 C51.9138414,370.261211 47.0388414,368.078599 43.5100355,364.549793 C39.9812296,361.020987 37.7986177,356.145987 37.7986177,350.761211 L37.7986177,350.761211 L37.7986177,342.761211 C37.7986177,335.167295 40.8766601,328.292295 45.8531812,323.315774 C50.8297024,318.339253 57.7047024,315.261211 65.2986177,315.261211 L65.2986177,315.261211 Z" id="6" stroke="#979797"></path>
                <rect id="5" stroke="#979797" x="338.70479" y="203.261211" width="290" height="58" rx="20"></rect>
                <rect id="4" stroke="#979797" x="64.70479" y="203.261211" width="237" height="58" rx="20"></rect>
                <path d="M261.998691,11.1974246 L261.998691,45.1276711 L311.220195,158.857505 L629.20479,158.857505 L629.20479,39.8326854 C618.257243,31.3288711 611.552641,26.1525649 609.090983,24.3037666 C606.629326,22.4549684 602.298454,21.4741164 596.098368,21.3612107 C504.153837,21.5133983 444.21242,21.589492 416.274118,21.589492 C385.732812,21.3612107 368.559482,20.2759033 357.82551,20.2759033 C337.260581,20.2759033 305.318308,17.2497437 261.998691,11.1974246 Z" id="3"></path>
                <path d="M49.7673175,134.656946 C66.3082449,138.529074 100.386377,139.620333 131.000825,140.127703 C151.410457,140.46595 183.85403,139.628807 228.331545,137.616275 C232.568133,136.917672 236.502276,134.40393 240.133971,130.075049 C248.090185,120.591459 248.090185,104.863785 246.826571,99.0142744 C245.348931,92.7464962 238.424009,81.1874049 225.417653,76.5686386 C216.95868,72.9490102 196.079664,68.0377244 183.20479,66.5952187 C150.769834,62.7318066 100.894383,65.6887488 92.8407366,66.5952187 C84.7870902,67.5016886 65.0604374,72.3732356 54.5157283,76.5686386 C48.2671703,79.0547403 42.8819776,83.6769169 39.5215131,89.5507948 C36.1610486,95.4246727 36.1610486,111.035703 39.5215131,118.571521 C41.2422445,122.430249 42.0033369,125.557063 44.6615897,130.075049 C45.3962651,131.323708 46.3534495,132.921195 49.7673175,134.656946 Z" id="2" stroke="#979797"></path>
                <path d="M0,45.1276711 L262.00165,45.1276711 L262.00165,11.1974246 C238.590318,7.78177713 222.421471,5.57630581 213.495111,4.5810106 C190.267887,1.99115958 170.40616,0.857996427 165.057148,0.561210717 C156.62465,0.0933402259 142.897244,-0.081989349 123.874931,0.0352219923 C112.003909,0.457515623 103.661115,0.860990194 98.8465485,1.2456457 C87.3580963,2.16350545 78.6903944,3.59559757 73.0470846,4.5810106 C56.6208519,7.44929605 44.9398392,11.9099945 37.0011647,14.7997985 C22.399726,20.1149549 10.0660044,30.2242457 0,45.1276711 Z" id="1"></path>
            </g>
            <g id="right" transform="translate(1475.033948, 243.380605) scale(-1, 1) translate(-1475.033948, -243.380605) translate(1083.700000, -0.000000)">
                <path d="M685.828216,313.424568 C703.451562,312.497274 714.699227,312.108742 719.571184,312.260967 C729.086822,312.558284 746.764636,315.413883 752.854739,323.697286 C758.991542,332.044208 769.808748,354.482548 773.459743,371.138256 C773.778403,372.591973 774.104887,374.303023 774.439213,376.271404 L774.628099,377.405759 C776.314433,387.730159 778.196883,404.487813 780.277591,427.678319 C780.758793,433.041551 779.02056,438.092092 775.821219,441.922126 C772.621878,445.752159 767.961429,448.361685 762.598197,448.842888 C761.898628,448.905655 761.196179,448.930579 760.493922,448.917551 L760.493922,448.917551 L689.244199,447.595779 C684.235953,447.50287 679.670326,445.520012 676.255299,442.312222 C672.840272,439.104431 670.575844,434.671707 670.169995,429.679067 C668.695573,411.541155 667.812288,397.807776 667.520537,388.478911 C667.335689,382.568314 667.240437,373.698044 667.234622,361.86839 L667.234622,361.86839 L667.234835,359.138035 C667.239485,351.722384 667.276783,343.227325 667.346726,333.652898 L667.346726,333.652898 L667.353381,332.75205 C667.391885,327.594611 669.435365,322.898242 672.756833,319.423482 C676.078301,315.948722 680.677758,313.695571 685.828216,313.424568 Z" id="22" stroke="#979797"></path>
                <rect id="21" stroke="#979797" x="131.70479" y="429.261211" width="213" height="57" rx="20"></rect>
                <path d="M410.196286,423.604543 L601.04377,426.850809 L604.20479,426.850809 C609.589566,426.850809 614.464566,429.033421 617.993372,432.562227 C621.522178,436.091033 623.70479,440.966033 623.70479,446.350809 L623.70479,446.350809 L623.70479,460.761211 C623.70479,466.145987 621.522178,471.020987 617.993372,474.549793 C614.464566,478.078599 609.589566,480.261211 604.20479,480.261211 L604.20479,480.261211 L410.20479,480.261211 C404.820014,480.261211 399.945014,478.078599 396.416208,474.549793 C392.887402,471.020987 390.70479,466.145987 390.70479,460.761211 L390.70479,460.761211 L390.70479,443.104615 C390.70479,437.719839 392.887402,432.844839 396.416208,429.316033 C399.945014,425.787227 404.820014,423.604615 410.196286,423.604543 L410.196286,423.604543 Z" id="20" stroke="#979797"></path>
                <rect id="19" stroke="#979797" x="48.70479" y="312.261211" width="264" height="61" rx="20"></rect>
                <rect id="18" stroke="#979797" x="358.70479" y="300.261211" width="79" height="78" rx="20"></rect>
                <path d="M589.298618,315.261211 C593.578825,315.261211 597.453825,316.996107 600.258773,319.801056 C603.063721,322.606004 604.798618,326.481004 604.798618,330.761211 L604.798618,330.761211 L604.798618,356.761211 C604.798618,360.489133 603.287579,363.864133 600.844559,366.307152 C598.40154,368.750172 595.02654,370.261211 591.298618,370.261211 L591.298618,370.261211 L496.298618,370.261211 C490.913841,370.261211 486.038841,368.078599 482.510035,364.549793 C478.98123,361.020987 476.798618,356.145987 476.798618,350.761211 L476.798618,350.761211 L476.798618,342.761211 C476.798618,335.167295 479.87666,328.292295 484.853181,323.315774 C489.829702,318.339253 496.704702,315.261211 504.298618,315.261211 L504.298618,315.261211 Z" id="17" stroke="#979797"></path>
                <rect id="16" stroke="#979797" x="67.8678952" y="203.261211" width="290" height="58" rx="20"></rect>
                <rect id="15" stroke="#979797" x="390.867895" y="203.261211" width="237" height="58" rx="20"></rect>
                <path d="M261.998691,11.1974246 L261.998691,45.1276711 L311.220195,158.857505 L629.20479,158.857505 L629.20479,39.8326854 C618.257243,31.3288711 611.552641,26.1525649 609.090983,24.3037666 C606.629326,22.4549684 602.298454,21.4741164 596.098368,21.3612107 C504.153837,21.5133983 444.21242,21.589492 416.274118,21.589492 C385.732812,21.3612107 368.559482,20.2759033 357.82551,20.2759033 C337.260581,20.2759033 305.318308,17.2497437 261.998691,11.1974246 Z" id="14"></path>
                <path d="M49.7673175,134.656946 C66.3082449,138.529074 100.386377,139.620333 131.000825,140.127703 C151.410457,140.46595 183.85403,139.628807 228.331545,137.616275 C232.568133,136.917672 236.502276,134.40393 240.133971,130.075049 C248.090185,120.591459 248.090185,104.863785 246.826571,99.0142744 C245.348931,92.7464962 238.424009,81.1874049 225.417653,76.5686386 C216.95868,72.9490102 196.079664,68.0377244 183.20479,66.5952187 C150.769834,62.7318066 100.894383,65.6887488 92.8407366,66.5952187 C84.7870902,67.5016886 65.0604374,72.3732356 54.5157283,76.5686386 C48.2671703,79.0547403 42.8819776,83.6769169 39.5215131,89.5507948 C36.1610486,95.4246727 36.1610486,111.035703 39.5215131,118.571521 C41.2422445,122.430249 42.0033369,125.557063 44.6615897,130.075049 C45.3962651,131.323708 46.3534495,132.921195 49.7673175,134.656946 Z" id="13" stroke="#979797"></path>
                <path d="M0,45.1276711 L262.00165,45.1276711 L262.00165,11.1974246 C238.590318,7.78177713 222.421471,5.57630581 213.495111,4.5810106 C190.267887,1.99115958 170.40616,0.857996427 165.057148,0.561210717 C156.62465,0.0933402259 142.897244,-0.081989349 123.874931,0.0352219923 C112.003909,0.457515623 103.661115,0.860990194 98.8465485,1.2456457 C87.3580963,2.16350545 78.6903944,3.59559757 73.0470846,4.5810106 C56.6208519,7.44929605 44.9398392,11.9099945 37.0011647,14.7997985 C22.399726,20.1149549 10.0660044,30.2242457 0,45.1276711 Z" id="12"></path>
            </g>
            <g id="middle" transform="translate(664.000000, 39.832685)">
                <path d="M164.579924,143.526154 C189.772186,140.267854 230.276571,138.961244 286.093079,139.606321 L286.044,139.604411 L287.664343,139.587554 C342.619506,138.987571 382.567258,140.300437 407.507597,143.526154 C424.312696,145.69968 452.642063,147.577702 477.085636,154.238654 C482.522918,155.72033 493.126211,157.702316 500.753099,161.430779 C504.534301,163.279248 507.276917,165.794212 509.28676,168.942001 C513.871436,179.137088 512.792118,186.068087 511.309989,191.858105 C509.122588,200.403304 502.356273,205.855402 498.406363,209.02869 C493.21855,212.223467 488.76514,213.997147 483.012429,215.481338 C477.721203,216.846467 470.25266,217.79902 465.424626,217.79902 C457.896227,217.79902 451.655068,216.732796 445.877742,215.481338 C438.175284,213.812868 431.907073,210.713236 426.474682,209.02869 C414.443834,205.298008 400.160496,198.573203 389.918297,194.671934 C376.752205,189.656949 362.221505,185.00533 351.970899,182.755401 C325.693387,176.987688 303.717514,174.101178 286.04328,174.095869 C268.36923,174.10128 246.393669,176.98779 220.116622,182.755401 C209.866016,185.00533 195.335316,189.656949 182.169224,194.671934 C171.927025,198.573203 157.643687,205.298008 145.612839,209.02869 C140.180448,210.713236 133.912237,213.812868 126.209779,215.481338 C120.432453,216.732796 114.191293,217.79902 106.662895,217.79902 C101.834861,217.79902 94.3663177,216.846467 89.0750916,215.481338 C83.3223813,213.997147 78.868971,212.223467 73.6811583,209.02869 C69.7312478,205.855402 62.9649327,200.403304 60.7775321,191.858105 C59.2954028,186.068087 58.2160848,179.137088 62.8007612,168.942001 C64.8106043,165.794212 67.5532204,163.279248 71.3344218,161.430779 C78.9613103,157.702316 89.5646025,155.72033 95.0018854,154.238654 C119.445458,147.577702 147.774825,145.69968 164.579924,143.526154 Z" id="24" stroke="#979797"></path>
                <path d="M0,111.879588 L0,2.84217094e-14 C5.05313934,3.92069907 9.10306382,6.62616577 12.1497734,8.11640009 C15.1964831,9.60663441 19.3989838,10.937669 24.7572756,12.1095038 L548.392724,12.1095038 C553.751016,10.937669 557.953517,9.60663441 561.000227,8.11640009 C564.046936,6.62616577 568.096861,3.92069907 573.15,3.55271368e-14 L573.15,3.55271368e-14 L573.15,111.879588 L0,111.879588 Z" id="23"></path>
            </g>
            <g id="new" transform="translate(0.000000, 508.187042)">
                <path d="M68.5041925,0 C56.6825626,21.2938602 44.2695825,44.959385 31.2652519,70.9965743 C27.9803004,77.5736838 22.5259384,86.837674 16.6083077,99.7654615 C14.2666419,104.881117 10.5747281,113.836153 5.53256623,126.63057 C1.84418874,138.029187 0,146.6383 0,152.457907 C0,161.187319 0,163.618814 5.53256623,174.625547 C15.2372994,185.197889 27.0039736,196.724059 64.8826705,204.343973 C80.4840705,207.482448 98.7187113,210.293452 117.532278,209.553921 C129.170397,209.096445 132.052376,209.096445 153.263272,204.343973 C161.0394,202.242747 170.108106,198.311554 175.410869,193.144173 C179.323982,189.330963 182.972322,182.007067 186.355887,171.172485 C186.62131,163.513047 185.953468,155.073432 184.352361,145.85364 C182.751253,136.633848 179.770756,124.064923 175.410869,108.146863 C174.006482,102.438781 172.974928,94.6698019 172.316209,84.8399249 C171.657489,75.0100479 171.216348,60.8024655 170.992788,42.2171779 L68.5041925,0 Z" id="25"></path>
                <path d="M1774.50419,2.95642621e-10 C1762.68256,21.2938602 1750.26958,44.959385 1737.26525,70.9965743 C1733.9803,77.5736838 1728.52594,86.837674 1722.60831,99.7654615 C1720.26664,104.881117 1716.57473,113.836153 1711.53257,126.63057 C1707.84419,138.029187 1706,146.6383 1706,152.457907 C1706,161.187319 1706,163.618814 1711.53257,174.625547 C1721.2373,185.197889 1733.00397,196.724059 1770.88267,204.343973 C1786.48407,207.482448 1804.71871,210.293452 1823.53228,209.553921 C1835.1704,209.096445 1838.05238,209.096445 1859.26327,204.343973 C1867.0394,202.242747 1876.10811,198.311554 1881.41087,193.144173 C1885.32398,189.330963 1888.97232,182.007067 1892.35589,171.172485 C1892.62131,163.513047 1891.95347,155.073432 1890.35236,145.85364 C1888.75125,136.633848 1885.77076,124.064923 1881.41087,108.146863 C1880.00648,102.438781 1878.97493,94.6698019 1878.31621,84.8399249 C1877.65749,75.0100479 1877.21635,60.8024655 1876.99279,42.2171779 L1774.50419,2.95642621e-10 Z" id="26" transform="translate(1799.206251, 104.836687) scale(-1, 1) translate(-1799.206251, -104.836687) "></path>
                <path d="M869.665791,40.7182693 C861.107516,40.7052396 854.21792,40.4650197 847.289674,38.4333489 C842.521849,37.0352098 836.268504,33.5498321 828.529639,27.9772159 C824.469911,25.3919103 821.135551,23.6178269 818.526556,22.6549658 C814.613065,21.2106742 812.706714,20.1002952 806.426401,19.8199161 C805.530095,19.7799013 812.831857,19.7562926 828.331686,19.7490899 L834.368123,19.7471868 C834.794936,19.7471087 835.226627,19.7470404 835.663194,19.7469818 L844.048113,19.7469818 C844.543203,19.7470404 845.04317,19.7471087 845.548014,19.7471868 L853.486441,19.7490899 C876.184574,19.7562926 907.080774,19.7799013 946.175042,19.8199161 L945.763905,19.819153 L948.19883,19.8170175 C985.949428,19.7787594 1015.89699,19.7561169 1038.04151,19.7490899 L1045.97993,19.7471868 C1046.48478,19.7471087 1046.98474,19.7470404 1047.47983,19.7469818 L1055.86475,19.7469818 C1056.30132,19.7470404 1056.73301,19.7471087 1057.15982,19.7471868 L1063.19626,19.7490899 C1078.69609,19.7562926 1085.99785,19.7799013 1085.10155,19.8199161 C1078.82123,20.1002952 1076.91488,21.2106742 1073.00139,22.6549658 C1070.3924,23.6178269 1067.05804,25.3919103 1062.99831,27.9772159 C1055.25944,33.5498321 1049.0061,37.0352098 1044.23827,38.4333489 C1037.31003,40.4650197 1030.42043,40.7052396 1021.86216,40.7182693 Z" id="27"></path>
            </g>
        </g>
    </g>
</svg>