<?xml version="1.0" encoding="UTF-8"?>
<svg width="1741px" height="427px" viewBox="0 0 1741 427" version="1.1" xmlns="http://www.w3.org/2000/svg" xmlns:xlink="http://www.w3.org/1999/xlink">
    <title>level_7_chalkboard</title>
    <g id="Page-1" stroke="none" stroke-width="1" fill="none" fill-rule="evenodd" stroke-linecap="round" stroke-linejoin="round">
        <g id="board" stroke="#979797" stroke-width="0.709">
            <g id="left" transform="translate(34.110600, 0.499800)" fill="#979797">
                <g id="1" transform="translate(114.316700, 0.000000)">
                    <path d="M415.8948,0 C415.7468,0 415.5988,0.002 415.4518,0.005 C412.2878,0.075 409.1558,0.896 406.0278,2.42 C402.5668,4.106 399.2328,6.6 395.8548,9.682 C393.4188,11.905 391.2238,14.18 389.0598,16.291 C387.8468,17.475 386.6078,18.645 385.2268,19.771 C383.7518,20.974 382.0238,22.359 379.7828,24.069 C374.0458,28.447 369.1988,31.758 366.4328,34.774 C365.7178,35.553 365.0018,36.469 364.5528,37.444 C364.3998,37.777 364.2758,38.122 364.1898,38.479 C364.1078,38.823 364.0638,39.171 364.0628,39.525 C364.0618,39.879 364.416501,39.5418 364.0625,39.5418 L51.8325,39.5418 C51.2504966,39.5418 51.8345,40.1065 51.8325,39.5245 C51.8305,38.9425 51.7125,38.3825 51.5075,37.8395 C51.2315,37.1095 50.8035,36.4255 50.3335,35.8085 C49.3785,34.5565 48.0315,33.3125 46.8765,32.3265 C44.0495,29.9145 41.0445,27.8055 36.9675,24.7195 C34.3365,22.7275 32.3335,21.1285 30.6685,19.7705 C28.8770859,18.3093947 32.4595746,21.2321086 30.668,19.7712 C28.75,18.2072 26.983,16.4512 25.134,14.6112 C21.763,11.2562 18.439,7.9762 14.716,5.3322 C12.297,3.6142 9.873,2.2762 7.413,1.3702 C6.189,0.9192 4.963,0.5772 3.733,0.3482 C3.119,0.2342 2.504,0.1472 1.889,0.0892 C1.582,0.0602 1.274,0.0382 0.966,0.0232 C0.523,0.0022 0.188,0 0.044,0 C0.029,0 0.022,0 -5.68434189e-14,0" id="Stroke-1313"></path>
                </g>
            </g>
        </g>
    </g>
</svg>
