<?xml version="1.0" encoding="UTF-8"?>
<svg width="1741px" height="427px" viewBox="0 0 1741 427" version="1.1" xmlns="http://www.w3.org/2000/svg" xmlns:xlink="http://www.w3.org/1999/xlink">
    <title>level_7_chalkboard</title>
    <g id="Page-1" stroke="none" stroke-width="1" fill="none" fill-rule="evenodd" stroke-linecap="round" stroke-linejoin="round">
        <g id="board" stroke="#979797" stroke-width="0.709">
            <g id="right" transform="translate(904.026200, 0.499800)" fill="#979797">
                <g id="10" transform="translate(272.483700, 0.000000)">
                    <path d="M-1.13686838e-13,0 C0.148,0 0.296,0.0022 0.443,0.0052 C3.607,0.0752 6.739,0.8962 9.867,2.4202 C13.328,4.1062 16.662,6.6002 20.04,9.6822 C22.476,11.9052 24.671,14.1802 26.835,16.2912 C28.048,17.4752 29.287,18.6452 30.668,19.7712 C32.1911078,21.0130678 29.1454894,18.5283903 30.6684,19.7705 C32.3334,21.1285 34.3364,22.7275 36.9674,24.7195 C41.0444,27.8055 44.0494,29.9145 46.8764,32.3265 C48.0314,33.3125 49.3794,34.5565 50.3334,35.8085 C50.8034,36.4255 51.2314,37.1095 51.5074,37.8395 C51.7124,38.3825 51.8304,38.9425 51.8324,39.5245 C51.8344,40.1065 51.2503966,39.5418 51.8324,39.5418 L364.0624,39.5418 C364.456401,39.5418 364.0618,39.919 364.0628,39.525 C364.0638,39.131 364.1188,38.744 364.2188,38.363 C364.3238,37.968 364.4758,37.587 364.6598,37.222 C365.2348,36.083 366.1778,35.003 367.0578,34.122 C370.4428,30.737 375.9618,27.205 383.6018,21.085 C384.1648,20.634 384.7048,20.197 385.2268,19.771 C387.1448,18.207 388.9128,16.451 390.7608,14.611 C394.1318,11.256 397.4558,7.977 401.1798,5.332 C403.5978,3.614 406.0218,2.276 408.4818,1.37 C409.7058,0.919 410.9318,0.578 412.1618,0.348 C412.7758,0.234 413.3908,0.147 414.0058,0.089 C414.3138,0.06 414.6208,0.038 414.9288,0.024 C415.3718,0.002 415.7068,0.001 415.8518,0 C415.8658,0 415.8728,0 415.8948,0" id="Stroke-1239"></path>
                </g>
            </g>
        </g>
    </g>
</svg>
