<?xml version="1.0" encoding="UTF-8"?>
<svg width="1903px" height="720px" viewBox="0 0 1903 720" version="1.1" xmlns="http://www.w3.org/2000/svg" xmlns:xlink="http://www.w3.org/1999/xlink">
    <g id="Page-1" stroke="none" stroke-width="1" fill="none" fill-rule="evenodd">
        <g id="board" transform="translate(1.005354, 1.238789)">
            <g id="left" transform="translate(34.789856, 0.000000)" fill="#979797">
                <path d="M685.828216,313.424568 C703.451562,312.497274 714.699227,312.108742 719.571184,312.260967 C729.086822,312.558284 746.764636,315.413883 752.854739,323.697286 C758.991542,332.044208 769.808748,354.482548 773.459743,371.138256 C773.778403,372.591973 774.104887,374.303023 774.439213,376.271404 L774.628099,377.405759 C776.314433,387.730159 778.196883,404.487813 780.277591,427.678319 C780.758793,433.041551 779.02056,438.092092 775.821219,441.922126 C772.621878,445.752159 767.961429,448.361685 762.598197,448.842888 C761.898628,448.905655 761.196179,448.930579 760.493922,448.917551 L760.493922,448.917551 L689.244199,447.595779 C684.235953,447.50287 679.670326,445.520012 676.255299,442.312222 C672.840272,439.104431 670.575844,434.671707 670.169995,429.679067 C668.695573,411.541155 667.812288,397.807776 667.520537,388.478911 C667.335689,382.568314 667.240437,373.698044 667.234622,361.86839 L667.234622,361.86839 L667.234835,359.138035 C667.239485,351.722384 667.276783,343.227325 667.346726,333.652898 L667.346726,333.652898 L667.353381,332.75205 C667.391885,327.594611 669.435365,322.898242 672.756833,319.423482 C676.078301,315.948722 680.677758,313.695571 685.828216,313.424568 Z" id="11" stroke="#979797"></path>
            </g>
        </g>
    </g>
</svg>
