<?xml version="1.0" encoding="UTF-8"?>
<svg width="1903px" height="720px" viewBox="0 0 1903 720" version="1.1" xmlns="http://www.w3.org/2000/svg" xmlns:xlink="http://www.w3.org/1999/xlink">
    <g id="Page-1" stroke="none" stroke-width="1" fill="none" fill-rule="evenodd">
        <g id="board" transform="translate(1.005354, 1.238789)">
            <g id="right" transform="translate(1475.028594, 243.380605) scale(-1, 1) translate(-1475.028594, -243.380605) translate(1083.694646, -0.000000)" fill="#979797">
                <path d="M0,45.1276711 L262.00165,45.1276711 L262.00165,11.1974246 C238.590318,7.78177713 222.421471,5.57630581 213.495111,4.5810106 C190.267887,1.99115958 170.40616,0.857996427 165.057148,0.561210717 C156.62465,0.0933402259 142.897244,-0.081989349 123.874931,0.0352219923 C112.003909,0.457515623 103.661115,0.860990194 98.8465485,1.2456457 C87.3580963,2.16350545 78.6903944,3.59559757 73.0470846,4.5810106 C56.6208519,7.44929605 44.9398392,11.9099945 37.0011647,14.7997985 C22.399726,20.1149549 10.0660044,30.2242457 0,45.1276711 Z" id="12"></path>
            </g>
        </g>
    </g>
</svg>
