<?xml version="1.0" encoding="UTF-8"?>
<svg width="1903px" height="720px" viewBox="0 0 1903 720" version="1.1" xmlns="http://www.w3.org/2000/svg" xmlns:xlink="http://www.w3.org/1999/xlink">
    <g id="Page-1" stroke="none" stroke-width="1" fill="none" fill-rule="evenodd">
        <g id="board" transform="translate(1.005354, 1.238789)">
            <g id="right" transform="translate(1475.028594, 243.380605) scale(-1, 1) translate(-1475.028594, -243.380605) translate(1083.694646, -0.000000)" fill="#979797">
                <path d="M589.298618,315.261211 C593.578825,315.261211 597.453825,316.996107 600.258773,319.801056 C603.063721,322.606004 604.798618,326.481004 604.798618,330.761211 L604.798618,330.761211 L604.798618,356.761211 C604.798618,360.489133 603.287579,363.864133 600.844559,366.307152 C598.40154,368.750172 595.02654,370.261211 591.298618,370.261211 L591.298618,370.261211 L496.298618,370.261211 C490.913841,370.261211 486.038841,368.078599 482.510035,364.549793 C478.98123,361.020987 476.798618,356.145987 476.798618,350.761211 L476.798618,350.761211 L476.798618,342.761211 C476.798618,335.167295 479.87666,328.292295 484.853181,323.315774 C489.829702,318.339253 496.704702,315.261211 504.298618,315.261211 L504.298618,315.261211 Z" id="17" stroke="#979797"></path>
            </g>
        </g>
    </g>
</svg>
