<?xml version="1.0" encoding="UTF-8"?>
<svg width="1903px" height="720px" viewBox="0 0 1903 720" version="1.1" xmlns="http://www.w3.org/2000/svg" xmlns:xlink="http://www.w3.org/1999/xlink">
    <g id="Page-1" stroke="none" stroke-width="1" fill="none" fill-rule="evenodd">
        <g id="board" transform="translate(1.005354, 1.238789)">
            <g id="left" transform="translate(34.789856, 0.000000)" fill="#979797">
                <path d="M49.7673175,134.656946 C66.3082449,138.529074 100.386377,139.620333 131.000825,140.127703 C151.410457,140.46595 183.85403,139.628807 228.331545,137.616275 C232.568133,136.917672 236.502276,134.40393 240.133971,130.075049 C248.090185,120.591459 248.090185,104.863785 246.826571,99.0142744 C245.348931,92.7464962 238.424009,81.1874049 225.417653,76.5686386 C216.95868,72.9490102 196.079664,68.0377244 183.20479,66.5952187 C150.769834,62.7318066 100.894383,65.6887488 92.8407366,66.5952187 C84.7870902,67.5016886 65.0604374,72.3732356 54.5157283,76.5686386 C48.2671703,79.0547403 42.8819776,83.6769169 39.5215131,89.5507948 C36.1610486,95.4246727 36.1610486,111.035703 39.5215131,118.571521 C41.2422445,122.430249 42.0033369,125.557063 44.6615897,130.075049 C45.3962651,131.323708 46.3534495,132.921195 49.7673175,134.656946 Z" id="2" stroke="#979797"></path>
            </g>
        </g>
    </g>
</svg>
