<?xml version="1.0" encoding="UTF-8"?>
<svg width="1903px" height="720px" viewBox="0 0 1903 720" version="1.1" xmlns="http://www.w3.org/2000/svg" xmlns:xlink="http://www.w3.org/1999/xlink">
    <g id="Page-1" stroke="none" stroke-width="1" fill="none" fill-rule="evenodd">
        <g id="board" transform="translate(1.005354, 1.238789)">
            <g id="right" transform="translate(1475.028594, 243.380605) scale(-1, 1) translate(-1475.028594, -243.380605) translate(1083.694646, -0.000000)" fill="#979797">
                <path d="M410.196286,423.604543 L601.04377,426.850809 L604.20479,426.850809 C609.589566,426.850809 614.464566,429.033421 617.993372,432.562227 C621.522178,436.091033 623.70479,440.966033 623.70479,446.350809 L623.70479,446.350809 L623.70479,460.761211 C623.70479,466.145987 621.522178,471.020987 617.993372,474.549793 C614.464566,478.078599 609.589566,480.261211 604.20479,480.261211 L604.20479,480.261211 L410.20479,480.261211 C404.820014,480.261211 399.945014,478.078599 396.416208,474.549793 C392.887402,471.020987 390.70479,466.145987 390.70479,460.761211 L390.70479,460.761211 L390.70479,443.104615 C390.70479,437.719839 392.887402,432.844839 396.416208,429.316033 C399.945014,425.787227 404.820014,423.604615 410.196286,423.604543 L410.196286,423.604543 Z" id="20" stroke="#979797"></path>
            </g>
        </g>
    </g>
</svg>
