<?xml version="1.0" encoding="UTF-8"?>
<svg width="1903px" height="720px" viewBox="0 0 1903 720" version="1.1" xmlns="http://www.w3.org/2000/svg" xmlns:xlink="http://www.w3.org/1999/xlink">
    <g id="Page-1" stroke="none" stroke-width="1" fill="none" fill-rule="evenodd">
        <g id="board" transform="translate(1.005354, 1.238789)">
            <g id="middle" transform="translate(663.994646, 39.832685)" fill="#979797">
                <path d="M164.579924,143.526154 C189.772186,140.267854 230.276571,138.961244 286.093079,139.606321 L286.044,139.604411 L287.664343,139.587554 C342.619506,138.987571 382.567258,140.300437 407.507597,143.526154 C424.312696,145.69968 452.642063,147.577702 477.085636,154.238654 C482.522918,155.72033 493.126211,157.702316 500.753099,161.430779 C504.534301,163.279248 507.276917,165.794212 509.28676,168.942001 C513.871436,179.137088 512.792118,186.068087 511.309989,191.858105 C509.122588,200.403304 502.356273,205.855402 498.406363,209.02869 C493.21855,212.223467 488.76514,213.997147 483.012429,215.481338 C477.721203,216.846467 470.25266,217.79902 465.424626,217.79902 C457.896227,217.79902 451.655068,216.732796 445.877742,215.481338 C438.175284,213.812868 431.907073,210.713236 426.474682,209.02869 C414.443834,205.298008 400.160496,198.573203 389.918297,194.671934 C376.752205,189.656949 362.221505,185.00533 351.970899,182.755401 C325.693387,176.987688 303.717514,174.101178 286.04328,174.095869 C268.36923,174.10128 246.393669,176.98779 220.116622,182.755401 C209.866016,185.00533 195.335316,189.656949 182.169224,194.671934 C171.927025,198.573203 157.643687,205.298008 145.612839,209.02869 C140.180448,210.713236 133.912237,213.812868 126.209779,215.481338 C120.432453,216.732796 114.191293,217.79902 106.662895,217.79902 C101.834861,217.79902 94.3663177,216.846467 89.0750916,215.481338 C83.3223813,213.997147 78.868971,212.223467 73.6811583,209.02869 C69.7312478,205.855402 62.9649327,200.403304 60.7775321,191.858105 C59.2954028,186.068087 58.2160848,179.137088 62.8007612,168.942001 C64.8106043,165.794212 67.5532204,163.279248 71.3344218,161.430779 C78.9613103,157.702316 89.5646025,155.72033 95.0018854,154.238654 C119.445458,147.577702 147.774825,145.69968 164.579924,143.526154 Z" id="24" stroke="#979797"></path>
            </g>
        </g>
    </g>
</svg>
