<?xml version="1.0" encoding="UTF-8"?>
<svg width="1903px" height="720px" viewBox="0 0 1903 720" version="1.1" xmlns="http://www.w3.org/2000/svg" xmlns:xlink="http://www.w3.org/1999/xlink">
    <g id="Page-1" stroke="none" stroke-width="1" fill="none" fill-rule="evenodd">
        <g id="board" transform="translate(1.005354, 1.238789)">
            <g id="new" transform="translate(0.000000, 508.187042)" fill="#979797">
                <path d="M68.5041925,0 C56.6825626,21.2938602 44.2695825,44.959385 31.2652519,70.9965743 C27.9803004,77.5736838 22.5259384,86.837674 16.6083077,99.7654615 C14.2666419,104.881117 10.5747281,113.836153 5.53256623,126.63057 C1.84418874,138.029187 0,146.6383 0,152.457907 C0,161.187319 0,163.618814 5.53256623,174.625547 C15.2372994,185.197889 27.0039736,196.724059 64.8826705,204.343973 C80.4840705,207.482448 98.7187113,210.293452 117.532278,209.553921 C129.170397,209.096445 132.052376,209.096445 153.263272,204.343973 C161.0394,202.242747 170.108106,198.311554 175.410869,193.144173 C179.323982,189.330963 182.972322,182.007067 186.355887,171.172485 C186.62131,163.513047 185.953468,155.073432 184.352361,145.85364 C182.751253,136.633848 179.770756,124.064923 175.410869,108.146863 C174.006482,102.438781 172.974928,94.6698019 172.316209,84.8399249 C171.657489,75.0100479 171.216348,60.8024655 170.992788,42.2171779 L68.5041925,0 Z" id="25"></path>
            </g>
        </g>
    </g>
</svg>
