<?xml version="1.0" encoding="UTF-8"?>
<svg width="1903px" height="720px" viewBox="0 0 1903 720" version="1.1" xmlns="http://www.w3.org/2000/svg" xmlns:xlink="http://www.w3.org/1999/xlink">
    <g id="Page-1" stroke="none" stroke-width="1" fill="none" fill-rule="evenodd">
        <g id="board" transform="translate(1.005354, 1.238789)">
            <g id="new" transform="translate(0.000000, 508.187042)" fill="#979797">
                <path d="M1774.50419,2.95642621e-10 C1762.68256,21.2938602 1750.26958,44.959385 1737.26525,70.9965743 C1733.9803,77.5736838 1728.52594,86.837674 1722.60831,99.7654615 C1720.26664,104.881117 1716.57473,113.836153 1711.53257,126.63057 C1707.84419,138.029187 1706,146.6383 1706,152.457907 C1706,161.187319 1706,163.618814 1711.53257,174.625547 C1721.2373,185.197889 1733.00397,196.724059 1770.88267,204.343973 C1786.48407,207.482448 1804.71871,210.293452 1823.53228,209.553921 C1835.1704,209.096445 1838.05238,209.096445 1859.26327,204.343973 C1867.0394,202.242747 1876.10811,198.311554 1881.41087,193.144173 C1885.32398,189.330963 1888.97232,182.007067 1892.35589,171.172485 C1892.62131,163.513047 1891.95347,155.073432 1890.35236,145.85364 C1888.75125,136.633848 1885.77076,124.064923 1881.41087,108.146863 C1880.00648,102.438781 1878.97493,94.6698019 1878.31621,84.8399249 C1877.65749,75.0100479 1877.21635,60.8024655 1876.99279,42.2171779 L1774.50419,2.95642621e-10 Z" id="26" transform="translate(1799.206251, 104.836687) scale(-1, 1) translate(-1799.206251, -104.836687) "></path>
            </g>
        </g>
    </g>
</svg>
