<?xml version="1.0" encoding="UTF-8"?>
<svg width="1903px" height="720px" viewBox="0 0 1903 720" version="1.1" xmlns="http://www.w3.org/2000/svg" xmlns:xlink="http://www.w3.org/1999/xlink">
    <g id="Page-1" stroke="none" stroke-width="1" fill="none" fill-rule="evenodd">
        <g id="board" transform="translate(1.005354, 1.238789)">
            <g id="new" transform="translate(0.000000, 508.187042)" fill="#979797">
                <path d="M869.665791,40.7182693 C861.107516,40.7052396 854.21792,40.4650197 847.289674,38.4333489 C842.521849,37.0352098 836.268504,33.5498321 828.529639,27.9772159 C824.469911,25.3919103 821.135551,23.6178269 818.526556,22.6549658 C814.613065,21.2106742 812.706714,20.1002952 806.426401,19.8199161 C805.530095,19.7799013 812.831857,19.7562926 828.331686,19.7490899 L834.368123,19.7471868 C834.794936,19.7471087 835.226627,19.7470404 835.663194,19.7469818 L844.048113,19.7469818 C844.543203,19.7470404 845.04317,19.7471087 845.548014,19.7471868 L853.486441,19.7490899 C876.184574,19.7562926 907.080774,19.7799013 946.175042,19.8199161 L945.763905,19.819153 L948.19883,19.8170175 C985.949428,19.7787594 1015.89699,19.7561169 1038.04151,19.7490899 L1045.97993,19.7471868 C1046.48478,19.7471087 1046.98474,19.7470404 1047.47983,19.7469818 L1055.86475,19.7469818 C1056.30132,19.7470404 1056.73301,19.7471087 1057.15982,19.7471868 L1063.19626,19.7490899 C1078.69609,19.7562926 1085.99785,19.7799013 1085.10155,19.8199161 C1078.82123,20.1002952 1076.91488,21.2106742 1073.00139,22.6549658 C1070.3924,23.6178269 1067.05804,25.3919103 1062.99831,27.9772159 C1055.25944,33.5498321 1049.0061,37.0352098 1044.23827,38.4333489 C1037.31003,40.4650197 1030.42043,40.7052396 1021.86216,40.7182693 Z" id="27"></path>
            </g>
        </g>
    </g>
</svg>
