<?xml version="1.0" encoding="UTF-8"?>
<svg width="1903px" height="720px" viewBox="0 0 1903 720" version="1.1" xmlns="http://www.w3.org/2000/svg" xmlns:xlink="http://www.w3.org/1999/xlink">
    <g id="Page-1" stroke="none" stroke-width="1" fill="none" fill-rule="evenodd">
        <g id="board" transform="translate(1.005354, 1.238789)">
            <g id="left" transform="translate(34.789856, 0.000000)" fill="#979797">
                <path d="M150.298618,315.261211 C154.578825,315.261211 158.453825,316.996107 161.258773,319.801056 C164.063721,322.606004 165.798618,326.481004 165.798618,330.761211 L165.798618,330.761211 L165.798618,356.761211 C165.798618,360.489133 164.287579,363.864133 161.844559,366.307152 C159.40154,368.750172 156.02654,370.261211 152.298618,370.261211 L152.298618,370.261211 L57.2986177,370.261211 C51.9138414,370.261211 47.0388414,368.078599 43.5100355,364.549793 C39.9812296,361.020987 37.7986177,356.145987 37.7986177,350.761211 L37.7986177,350.761211 L37.7986177,342.761211 C37.7986177,335.167295 40.8766601,328.292295 45.8531812,323.315774 C50.8297024,318.339253 57.7047024,315.261211 65.2986177,315.261211 L65.2986177,315.261211 Z" id="6" stroke="#979797"></path>
            </g>
        </g>
    </g>
</svg>
