<?xml version="1.0" encoding="UTF-8"?>
<svg width="1903px" height="720px" viewBox="0 0 1903 720" version="1.1" xmlns="http://www.w3.org/2000/svg" xmlns:xlink="http://www.w3.org/1999/xlink">
    <g id="Page-1" stroke="none" stroke-width="1" fill="none" fill-rule="evenodd">
        <g id="board" transform="translate(1.005354, 1.238789)">
            <g id="left" transform="translate(34.789856, 0.000000)" fill="#979797">
                <path d="M153.196286,423.604543 L344.04377,426.850809 L347.20479,426.850809 C352.589566,426.850809 357.464566,429.033421 360.993372,432.562227 C364.522178,436.091033 366.70479,440.966033 366.70479,446.350809 L366.70479,446.350809 L366.70479,460.761211 C366.70479,466.145987 364.522178,471.020987 360.993372,474.549793 C357.464566,478.078599 352.589566,480.261211 347.20479,480.261211 L347.20479,480.261211 L153.20479,480.261211 C147.820014,480.261211 142.945014,478.078599 139.416208,474.549793 C135.887402,471.020987 133.70479,466.145987 133.70479,460.761211 L133.70479,460.761211 L133.70479,443.104615 C133.70479,437.719839 135.887402,432.844839 139.416208,429.316033 C142.945014,425.787227 147.820014,423.604615 153.196286,423.604543 L153.196286,423.604543 Z" id="9" stroke="#979797"></path>
            </g>
        </g>
    </g>
</svg>
