<?xml version="1.0" encoding="UTF-8"?>
<svg width="713px" height="239px" viewBox="0 0 713 239" version="1.1" xmlns="http://www.w3.org/2000/svg" xmlns:xlink="http://www.w3.org/1999/xlink">
    <title>rock_prodigy_training_center 2</title>
    <g id="Page-1" stroke="none" stroke-width="1" fill="none" fill-rule="evenodd">
        <g id="board" transform="translate(1.016536, 1.000000)">
            <g id="board-right" transform="translate(540.161478, 118.541890) scale(-1, 1) translate(-540.161478, -118.541890) translate(368.983464, -0.000000)">
                <g id="background-right" transform="translate(0.000000, 0.599509)" stroke="#979797">
                    <path d="M341.356029,-1.42108547e-14 L236.682536,-1.42108547e-14 L236.682536,-1.42108547e-14 L236.682536,3.62888858 L135.368096,3.62888858 L91.4384904,15.5060986 L85.8397641,15.5060986 L77.9626114,14.0711002 L1.58159585,43.6284601 C0.669136026,43.9815571 0.146076314,44.9429567 0.345271637,45.9008615 L12.1682586,102.756092 C12.2391502,103.097 12.3978172,103.413494 12.6285632,103.674263 L26.4198992,119.260044 L26.4198992,119.260044 C27.3185578,119.6585 28.0188623,119.857727 28.5208128,119.857727 C29.0227633,119.857727 29.7687331,119.6585 30.7587221,119.260044 L34.7922072,117.82746 L41.1180976,136.247839 C42.0150052,138.859547 44.8592999,140.249668 47.4710078,139.35276 C47.5016692,139.34223 47.5322274,139.331403 47.5626782,139.320279 L125.554901,110.828761 L125.554901,110.828761 L129.178073,110.828761 L129.178073,145.918174 C129.575185,146.839946 129.947377,147.523113 130.294647,147.967674 C130.641918,148.412235 131.25061,148.984755 132.120724,149.685233 L132.120724,177.609481 C133.886406,182.503304 135.589741,185.918955 137.230731,187.856435 C138.871721,189.793914 141.655049,191.675566 145.580716,193.50139 L159.011743,195.362896 L162.966412,197.926682 L162.966412,220.79697 C165.298497,226.028813 167.547443,229.592407 169.713248,231.487751 C171.879053,233.383095 175.605388,235.048602 180.892251,236.484271 L256.282671,236.484271 C260.153385,236.274309 263.060225,236.014336 265.003191,235.70435 C266.946156,235.394364 269.857785,234.726044 273.738075,233.699391 C278.796192,231.71582 282.331039,229.82516 284.342616,228.027408 C287.359982,225.33078 289.282365,222.862641 290.936898,218.32876 C291.695491,215.499101 292.781076,192.617926 294.193651,149.685233 L322.05615,149.685233 C329.726228,146.432252 334.6949,143.56039 336.962164,141.069645 C339.229429,138.5789 341.027384,134.017162 342.356029,127.384432 L342.356029,1 C342.356029,0.44771525 341.908314,-1.44233301e-14 341.356029,-1.42108547e-14 Z" id="Path" fill="#D8D8D8"></path>
                    <path d="M207.148472,50.3643523 C215.581794,50.3724094 227.29738,50.5321077 239.143924,50.7337823 L239.143924,50.7337823 L241.229386,50.7696842 C248.876317,50.9027506 256.500869,51.0506242 263.256838,51.1838682 C274.835009,51.4122177 292.292523,52.3128105 315.629396,53.8852648 C317.763296,54.0290463 319.651882,54.9994097 320.99523,56.4683831 C322.338579,57.9373568 323.136689,59.9049408 323.089638,62.0431626 C323.039491,64.3220461 322.143664,66.3086995 320.726094,67.7190595 C319.294925,69.1429494 317.333346,69.9775346 315.186231,69.9319375 L315.186231,69.9319375 L261.773196,67.4387416 L207.833328,66.4853947 L146.752335,68.7816187 C144.631275,68.8613559 142.678696,68.0738151 141.236448,66.736075 C139.796019,65.400023 138.864634,63.5151595 138.78285,61.3973644 L138.78285,61.3973644 L138.777118,60.2362521 C138.777116,58.1652652 139.567493,56.2655118 140.873557,54.8373609 C142.179621,53.4092095 144.001373,52.4526609 146.064119,52.2680843 C160.045571,51.01701 179.804806,50.3828435 205.341577,50.3644455 L205.341577,50.3644455 Z" id="Rectangle" transform="translate(231.022560, 60.341329) rotate(-5.000000) translate(-231.022560, -60.341329) "></path>
                    <path d="M206.332114,83.4314644 C215.215458,83.4382245 228.025078,83.5891891 240.729668,83.7866088 L240.729668,83.7866088 L242.781135,83.8189002 C249.953353,83.9332239 257.022579,84.0607277 263.259772,84.1837401 C274.837943,84.4120896 292.295457,85.3126824 315.63233,86.8851367 C317.76623,87.0289182 319.654816,87.9992817 320.998164,89.468255 C322.341512,90.9372288 323.139623,92.9048127 323.092571,95.0430345 C323.04203,97.3398707 322.138582,99.3425688 320.709051,100.764404 C319.264504,102.201175 317.284147,103.042926 315.125086,102.995486 L315.125086,102.995486 L261.730442,100.92233 L206.242342,100.252953 L146.763328,101.869681 C144.617915,101.927996 142.651971,101.111191 141.207802,99.743453 C139.764978,98.3769899 138.842957,96.4606212 138.783087,94.3176302 L138.783087,94.3176302 L138.780052,93.2356441 C138.78005,91.1632644 139.571458,89.2624752 140.878942,87.8340742 C142.186426,86.4056726 144.009985,85.4496594 146.074285,85.2668323 C159.695511,84.0604528 179.202177,83.4490976 204.594042,83.4316139 L204.594042,83.4316139 Z" id="Rectangle" transform="translate(231.025494, 93.374862) rotate(-5.000000) translate(-231.025494, -93.374862) "></path>
                    <path d="M196.983464,160.900491 C199.606816,160.900491 201.981816,161.963815 203.700978,163.682977 C205.42014,165.402139 206.483464,167.777139 206.483464,170.400491 C206.483464,173.023844 205.42014,175.398844 203.700978,177.118006 C201.981816,178.837167 199.606816,179.900491 196.983464,179.900491 C195.133833,179.900491 193.407597,179.372039 191.947727,178.457581 C190.438896,177.512454 189.214425,176.155355 188.432077,174.543815 C188.258647,174.18657 188.10848,173.819987 187.981782,173.446578 C187.855462,173.820136 187.705559,174.186773 187.532356,174.544074 C186.751247,176.155418 185.527506,177.512358 184.019173,178.457422 C182.559524,179.371982 180.833197,179.900491 178.983464,179.900491 C175.573722,179.900491 172.583652,178.104071 170.907679,175.406259 C170.754341,175.159431 170.612641,174.906086 170.482678,174.647256 C170.35303,174.9062 170.211427,175.159543 170.058179,175.406367 C168.383182,178.10414 165.39314,179.900491 161.983464,179.900491 C159.360111,179.900491 156.985111,178.837167 155.265949,177.118006 C153.546787,175.398844 152.483464,173.023844 152.483464,170.400491 C152.483464,167.777139 153.546787,165.402139 155.265949,163.682977 C156.985111,161.963815 159.360111,160.900491 161.983464,160.900491 C165.393205,160.900491 168.383275,162.696911 170.059249,165.394724 C170.212586,165.641551 170.354286,165.894897 170.48425,166.153726 C170.613897,165.894782 170.755501,165.641439 170.908749,165.394615 C172.583745,162.696842 175.573787,160.900491 178.983464,160.900491 C180.833095,160.900491 182.559331,161.428943 184.0192,162.343401 C185.528032,163.288528 186.752503,164.645627 187.53485,166.257167 C187.708281,166.614412 187.858448,166.980996 187.985146,167.354404 C188.111466,166.980846 188.261368,166.614209 188.434572,166.256908 C189.21568,164.645564 190.439422,163.288624 191.947755,162.34356 C193.407404,161.429 195.13373,160.900491 196.983464,160.900491 Z" id="Combined-Shape"></path>
                    <path d="M205.483464,203.900491 C208.815494,203.900491 211.835129,204.920741 214.019757,206.581058 C216.147762,208.198342 217.483464,210.426763 217.483464,212.900491 C217.483464,215.37422 216.147762,217.60264 214.019757,219.219924 C211.835129,220.880242 208.815494,221.900491 205.483464,221.900491 C202.542583,221.900491 199.845591,221.105527 197.750229,219.777471 C195.12038,221.105817 192.42382,221.900491 189.483464,221.900491 C186.151433,221.900491 183.131799,220.880242 180.947171,219.219924 C178.819165,217.60264 177.483464,215.37422 177.483464,212.900491 C177.483464,210.426763 178.819165,208.198342 180.947171,206.581058 C183.131799,204.920741 186.151433,203.900491 189.483464,203.900491 C192.424345,203.900491 195.121337,204.695455 197.216698,206.023511 C199.846548,204.695165 202.543108,203.900491 205.483464,203.900491 Z" id="Combined-Shape"></path>
                </g>
                <g id="right" transform="translate(0.000000, 0.000000)">
                    <path d="M269.056667,204.392369 C271.122209,204.280596 273.037956,205.015666 274.466143,206.295017 C275.894331,207.574368 276.834959,209.398 276.950265,211.463348 L276.950265,211.463348 L277.045897,213.176285 C277.159943,215.219072 276.444764,217.119053 275.190941,218.545611 C273.937118,219.97217 272.144651,220.925307 270.104123,221.074408 L270.104123,221.074408 L244.530029,222.943098 C242.464468,223.094028 240.533277,222.393435 239.080744,221.138719 C237.628211,219.884004 236.654336,218.075166 236.503406,216.009605 C236.490116,215.82772 236.483464,215.64541 236.483464,215.46304 L236.483464,215.46304 L236.483464,213.260145 C236.483464,211.267811 237.262438,209.449378 238.538767,208.102114 C239.815096,206.75485 241.588782,205.878756 243.578204,205.771102 L243.578204,205.771102 Z" id="34" stroke="#979797"></path>
                    <ellipse id="33" stroke="#979797" cx="205.483464" cy="213.5" rx="12" ry="9"></ellipse>
                    <ellipse id="32" cx="189.483464" cy="213.5" rx="12.5" ry="9.5"></ellipse>
                    <path d="M267.056667,161.392369 C269.122209,161.280596 271.037956,162.015666 272.466143,163.295017 C273.894331,164.574368 274.834959,166.398 274.950265,168.463348 L274.950265,168.463348 L275.045897,170.176285 C275.159943,172.219072 274.444764,174.119053 273.190941,175.545611 C271.937118,176.97217 270.144651,177.925307 268.104123,178.074408 L268.104123,178.074408 L242.530029,179.943098 C240.464468,180.094028 238.533277,179.393435 237.080744,178.138719 C235.628211,176.884004 234.654336,175.075166 234.503406,173.009605 C234.490116,172.82772 234.483464,172.64541 234.483464,172.46304 L234.483464,172.46304 L234.483464,170.260145 C234.483464,168.267811 235.262438,166.449378 236.538767,165.102114 C237.815096,163.75485 239.588782,162.878756 241.578204,162.771102 L241.578204,162.771102 Z" id="31" stroke="#979797"></path>
                    <g id="30" transform="translate(168.983464, 161.000000)">
                        <circle id="13-b" cx="28" cy="10" r="10"></circle>
                        <circle id="13-a" cx="10" cy="10" r="10"></circle>
                    </g>
                    <circle id="29" cx="161.983464" cy="171" r="10"></circle>
                    <path d="M316.830059,113.201841 C318.809745,113.13847 320.643387,113.850366 322.028633,115.07109 C323.41388,116.291815 324.350731,118.021366 324.536837,119.993304 L324.536837,119.993304 L324.694729,121.666285 C324.889326,123.72819 324.229748,125.673771 323.006045,127.152525 C321.7848,128.628308 320.001694,129.639138 317.945031,129.83662 L317.945031,129.83662 L263.307344,132.208665 C261.238208,132.298101 259.328705,131.540388 257.914128,130.243032 C256.501812,128.94775 255.582839,127.114549 255.490896,125.049464 L255.490896,125.049464 L255.483464,122.42936 C255.483464,120.405001 256.286813,118.563345 257.595993,117.211587 C258.905172,115.859828 260.720183,114.997968 262.743505,114.933199 L262.743505,114.933199 Z" id="28" stroke="#979797"></path>
                    <rect id="27" stroke="#979797" x="162.483464" y="120.5" width="79" height="19" rx="4"></rect>
                    <path d="M263.524978,79.4121796 C275.103461,79.6552027 292.40522,80.5526192 315.430268,82.1040625 C317.564168,82.2478441 319.452754,83.2182075 320.796102,84.6871809 C322.139451,86.1561546 322.937561,88.1237386 322.89051,90.2619604 C322.839968,92.5587966 321.93652,94.5614946 320.50699,95.9833294 C319.062442,97.4201007 317.082085,98.2618517 314.923025,98.2144124 L314.923025,98.2144124 L262.059503,96.1618778 Z" id="26" stroke="#979797" transform="translate(292.542269, 88.970093) rotate(-5.000000) translate(-292.542269, -88.970093) "></path>
                    <path d="M206.116358,83.7397589 L262.606973,84.4785031 L261.142421,101.218406 L206.614092,100.560607 L206.116358,83.7397589 Z" id="25" stroke="#979797" transform="translate(234.376575, 92.478471) rotate(-5.000000) translate(-234.376575, -92.478471) "></path>
                    <path d="M205.418259,89.1571561 C205.736202,94.5916312 205.902108,100.202494 205.916026,105.989744 L205.916026,105.989744 L146.933854,107.592981 C144.788441,107.651296 142.822497,106.83449 141.378328,105.466752 C139.935525,104.100309 139.013509,102.183975 138.953616,100.041022 L138.953616,100.041022 L138.950578,98.7902953 C138.950577,96.7184779 139.74157,94.818107 141.048481,93.3898071 C142.355392,91.9615069 144.178221,91.0052779 146.241894,90.8217448 C157.507536,89.8198326 177.234691,89.2651687 205.418259,89.1571561 Z" id="24" stroke="#979797" transform="translate(172.433708, 98.489110) rotate(-5.000000) translate(-172.433708, -98.489110) "></path>
                    <path d="M263.52344,46.4261481 L315.32003,49.2163337 C317.476506,49.3324991 319.392197,50.2940624 320.756891,51.7663546 C322.121585,53.2386468 322.935283,55.2216678 322.887772,57.3807486 C322.838794,59.6065551 321.938707,61.5662606 320.516712,62.961091 C319.086418,64.364061 317.129046,65.1943803 314.98702,65.1488908 L314.98702,65.1488908 L262.10139,62.680313 L263.52344,46.4261481 Z" id="23" stroke="#979797" transform="translate(292.563349, 55.968220) rotate(-5.000000) translate(-292.563349, -55.968220) "></path>
                    <path d="M206.890937,50.6408599 L262.581548,51.4451012 L261.159487,67.699326 L208.160925,66.762616 L206.890937,50.6408599 Z" id="22" stroke="#979797" transform="translate(234.737949, 59.170238) rotate(-5.000000) translate(-234.737949, -59.170238) "></path>
                    <path d="M146.322241,58.1179397 C170.229072,56.2706878 190.189191,55.56623 206.201801,56.0058074 C206.663537,60.2399693 207.086457,65.6244243 207.470829,72.1591479 L207.470829,72.1591479 L146.913771,74.435679 C144.792711,74.5154162 142.840132,73.7278753 141.397884,72.3901352 C139.957397,71.0540293 139.025995,69.1690676 138.944276,67.0511683 L138.944276,67.0511683 L138.938554,66.0941622 C138.938556,64.0045459 139.742774,62.0909813 141.067845,60.6595752 C142.392915,59.2281694 144.238836,58.2789219 146.322241,58.1179397 Z" id="21" stroke="#979797" transform="translate(173.219148, 65.316860) rotate(-5.000000) translate(-173.219148, -65.316860) "></path>
                    <path d="M342.356029,37.1974277 L236.983464,37.1974277 L236.983464,0.599508843 L341.35034,0.00572178956 C341.902616,0.00257966019 342.352871,0.447740465 342.356013,1.00001628 C342.356024,1.0019127 342.356029,1.00380915 342.356029,1.00570561 L342.356029,37.1974277 L342.356029,37.1974277 Z" id="20" stroke="#979797"></path>
                    <polygon id="19" stroke="#979797" points="235.983464 14.670609 137.722754 14.670609 135.368096 4.22839742 235.983464 4.22839742"></polygon>
                    <path d="M85.8397641,16.1056075 L77.9626114,14.670609 L1.58159585,44.227969 C0.669136026,44.5810659 0.146076314,45.5424655 0.345271637,46.5003703 L12.1682586,103.355601 C12.2391502,103.696509 12.3978172,104.013003 12.6285632,104.273772 L26.4198992,119.859553 L26.4198992,119.859553 C27.3185578,120.258008 28.0188623,120.457236 28.5208128,120.457236 C29.0227633,120.457236 29.7687331,120.258008 30.7587221,119.859553 L34.7922072,118.426968 L107.81462,89.1211705 C109.389219,89.1211705 109.389219,85.901301 107.81462,79.4615619 C103.490432,65.0936377 96.1654797,43.9749862 85.8397641,16.1056075 Z" id="18" stroke="#979797"></path>
                </g>
            </g>
            <g id="board-left" transform="translate(-0.000000, 0.000000)">
                <g id="background-left" transform="translate(0.000000, 0.599509)" stroke="#979797">
                    <path d="M341.356029,-1.42108547e-14 L236.682536,-1.42108547e-14 L236.682536,-1.42108547e-14 L236.682536,3.62888858 L135.368096,3.62888858 L91.4384904,15.5060986 L85.8397641,15.5060986 L77.9626114,14.0711002 L1.58159585,43.6284601 C0.669136026,43.9815571 0.146076314,44.9429567 0.345271637,45.9008615 L12.1682586,102.756092 C12.2391502,103.097 12.3978172,103.413494 12.6285632,103.674263 L26.4198992,119.260044 L26.4198992,119.260044 C27.3185578,119.6585 28.0188623,119.857727 28.5208128,119.857727 C29.0227633,119.857727 29.7687331,119.6585 30.7587221,119.260044 L34.7922072,117.82746 L41.1180976,136.247839 C42.0150052,138.859547 44.8592999,140.249668 47.4710078,139.35276 C47.5016692,139.34223 47.5322274,139.331403 47.5626782,139.320279 L125.554901,110.828761 L125.554901,110.828761 L129.178073,110.828761 L129.178073,145.918174 C129.575185,146.839946 129.947377,147.523113 130.294647,147.967674 C130.641918,148.412235 131.25061,148.984755 132.120724,149.685233 L132.120724,177.609481 C133.886406,182.503304 135.589741,185.918955 137.230731,187.856435 C138.871721,189.793914 141.655049,191.675566 145.580716,193.50139 L159.011743,195.362896 L162.966412,197.926682 L162.966412,220.79697 C165.298497,226.028813 167.547443,229.592407 169.713248,231.487751 C171.879053,233.383095 175.605388,235.048602 180.892251,236.484271 L256.282671,236.484271 C260.153385,236.274309 263.060225,236.014336 265.003191,235.70435 C266.946156,235.394364 269.857785,234.726044 273.738075,233.699391 C278.796192,231.71582 282.331039,229.82516 284.342616,228.027408 C287.359982,225.33078 289.282365,222.862641 290.936898,218.32876 C291.695491,215.499101 292.781076,192.617926 294.193651,149.685233 L322.05615,149.685233 C329.726228,146.432252 334.6949,143.56039 336.962164,141.069645 C339.229429,138.5789 341.027384,134.017162 342.356029,127.384432 L342.356029,1 C342.356029,0.44771525 341.908314,-1.44233301e-14 341.356029,-1.42108547e-14 Z" id="Path" fill="#D8D8D8"></path>
                    <path d="M207.148472,50.3643523 C215.581794,50.3724094 227.29738,50.5321077 239.143924,50.7337823 L239.143924,50.7337823 L241.229386,50.7696842 C248.876317,50.9027506 256.500869,51.0506242 263.256838,51.1838682 C274.835009,51.4122177 292.292523,52.3128105 315.629396,53.8852648 C317.763296,54.0290463 319.651882,54.9994097 320.99523,56.4683831 C322.338579,57.9373568 323.136689,59.9049408 323.089638,62.0431626 C323.039491,64.3220461 322.143664,66.3086995 320.726094,67.7190595 C319.294925,69.1429494 317.333346,69.9775346 315.186231,69.9319375 L315.186231,69.9319375 L261.773196,67.4387416 L207.833328,66.4853947 L146.752335,68.7816187 C144.631275,68.8613559 142.678696,68.0738151 141.236448,66.736075 C139.796019,65.400023 138.864634,63.5151595 138.78285,61.3973644 L138.78285,61.3973644 L138.777118,60.2362521 C138.777116,58.1652652 139.567493,56.2655118 140.873557,54.8373609 C142.179621,53.4092095 144.001373,52.4526609 146.064119,52.2680843 C160.045571,51.01701 179.804806,50.3828435 205.341577,50.3644455 L205.341577,50.3644455 Z" id="Rectangle" transform="translate(231.022560, 60.341329) rotate(-5.000000) translate(-231.022560, -60.341329) "></path>
                    <path d="M206.332114,83.4314644 C215.215458,83.4382245 228.025078,83.5891891 240.729668,83.7866088 L240.729668,83.7866088 L242.781135,83.8189002 C249.953353,83.9332239 257.022579,84.0607277 263.259772,84.1837401 C274.837943,84.4120896 292.295457,85.3126824 315.63233,86.8851367 C317.76623,87.0289182 319.654816,87.9992817 320.998164,89.468255 C322.341512,90.9372288 323.139623,92.9048127 323.092571,95.0430345 C323.04203,97.3398707 322.138582,99.3425688 320.709051,100.764404 C319.264504,102.201175 317.284147,103.042926 315.125086,102.995486 L315.125086,102.995486 L261.730442,100.92233 L206.242342,100.252953 L146.763328,101.869681 C144.617915,101.927996 142.651971,101.111191 141.207802,99.743453 C139.764978,98.3769899 138.842957,96.4606212 138.783087,94.3176302 L138.783087,94.3176302 L138.780052,93.2356441 C138.78005,91.1632644 139.571458,89.2624752 140.878942,87.8340742 C142.186426,86.4056726 144.009985,85.4496594 146.074285,85.2668323 C159.695511,84.0604528 179.202177,83.4490976 204.594042,83.4316139 L204.594042,83.4316139 Z" id="Rectangle" transform="translate(231.025494, 93.374862) rotate(-5.000000) translate(-231.025494, -93.374862) "></path>
                    <path d="M196.983464,160.900491 C199.606816,160.900491 201.981816,161.963815 203.700978,163.682977 C205.42014,165.402139 206.483464,167.777139 206.483464,170.400491 C206.483464,173.023844 205.42014,175.398844 203.700978,177.118006 C201.981816,178.837167 199.606816,179.900491 196.983464,179.900491 C195.133833,179.900491 193.407597,179.372039 191.947727,178.457581 C190.438896,177.512454 189.214425,176.155355 188.432077,174.543815 C188.258647,174.18657 188.10848,173.819987 187.981782,173.446578 C187.855462,173.820136 187.705559,174.186773 187.532356,174.544074 C186.751247,176.155418 185.527506,177.512358 184.019173,178.457422 C182.559524,179.371982 180.833197,179.900491 178.983464,179.900491 C175.573722,179.900491 172.583652,178.104071 170.907679,175.406259 C170.754341,175.159431 170.612641,174.906086 170.482678,174.647256 C170.35303,174.9062 170.211427,175.159543 170.058179,175.406367 C168.383182,178.10414 165.39314,179.900491 161.983464,179.900491 C159.360111,179.900491 156.985111,178.837167 155.265949,177.118006 C153.546787,175.398844 152.483464,173.023844 152.483464,170.400491 C152.483464,167.777139 153.546787,165.402139 155.265949,163.682977 C156.985111,161.963815 159.360111,160.900491 161.983464,160.900491 C165.393205,160.900491 168.383275,162.696911 170.059249,165.394724 C170.212586,165.641551 170.354286,165.894897 170.48425,166.153726 C170.613897,165.894782 170.755501,165.641439 170.908749,165.394615 C172.583745,162.696842 175.573787,160.900491 178.983464,160.900491 C180.833095,160.900491 182.559331,161.428943 184.0192,162.343401 C185.528032,163.288528 186.752503,164.645627 187.53485,166.257167 C187.708281,166.614412 187.858448,166.980996 187.985146,167.354404 C188.111466,166.980846 188.261368,166.614209 188.434572,166.256908 C189.21568,164.645564 190.439422,163.288624 191.947755,162.34356 C193.407404,161.429 195.13373,160.900491 196.983464,160.900491 Z" id="Combined-Shape"></path>
                    <path d="M205.483464,203.900491 C208.815494,203.900491 211.835129,204.920741 214.019757,206.581058 C216.147762,208.198342 217.483464,210.426763 217.483464,212.900491 C217.483464,215.37422 216.147762,217.60264 214.019757,219.219924 C211.835129,220.880242 208.815494,221.900491 205.483464,221.900491 C202.542583,221.900491 199.845591,221.105527 197.750229,219.777471 C195.12038,221.105817 192.42382,221.900491 189.483464,221.900491 C186.151433,221.900491 183.131799,220.880242 180.947171,219.219924 C178.819165,217.60264 177.483464,215.37422 177.483464,212.900491 C177.483464,210.426763 178.819165,208.198342 180.947171,206.581058 C183.131799,204.920741 186.151433,203.900491 189.483464,203.900491 C192.424345,203.900491 195.121337,204.695455 197.216698,206.023511 C199.846548,204.695165 202.543108,203.900491 205.483464,203.900491 Z" id="Combined-Shape"></path>
                </g>
                <g id="left" transform="translate(0.000000, 0.000000)">
                    <path d="M269.056667,204.392369 C271.122209,204.280596 273.037956,205.015666 274.466143,206.295017 C275.894331,207.574368 276.834959,209.398 276.950265,211.463348 L276.950265,211.463348 L277.045897,213.176285 C277.159943,215.219072 276.444764,217.119053 275.190941,218.545611 C273.937118,219.97217 272.144651,220.925307 270.104123,221.074408 L270.104123,221.074408 L244.530029,222.943098 C242.464468,223.094028 240.533277,222.393435 239.080744,221.138719 C237.628211,219.884004 236.654336,218.075166 236.503406,216.009605 C236.490116,215.82772 236.483464,215.64541 236.483464,215.46304 L236.483464,215.46304 L236.483464,213.260145 C236.483464,211.267811 237.262438,209.449378 238.538767,208.102114 C239.815096,206.75485 241.588782,205.878756 243.578204,205.771102 L243.578204,205.771102 Z" id="17" stroke="#979797"></path>
                    <ellipse id="16" stroke="#979797" cx="205.483464" cy="213.5" rx="12" ry="9"></ellipse>
                    <ellipse id="15" cx="189.483464" cy="213.5" rx="12.5" ry="9.5"></ellipse>
                    <path d="M267.056667,161.392369 C269.122209,161.280596 271.037956,162.015666 272.466143,163.295017 C273.894331,164.574368 274.834959,166.398 274.950265,168.463348 L274.950265,168.463348 L275.045897,170.176285 C275.159943,172.219072 274.444764,174.119053 273.190941,175.545611 C271.937118,176.97217 270.144651,177.925307 268.104123,178.074408 L268.104123,178.074408 L242.530029,179.943098 C240.464468,180.094028 238.533277,179.393435 237.080744,178.138719 C235.628211,176.884004 234.654336,175.075166 234.503406,173.009605 C234.490116,172.82772 234.483464,172.64541 234.483464,172.46304 L234.483464,172.46304 L234.483464,170.260145 C234.483464,168.267811 235.262438,166.449378 236.538767,165.102114 C237.815096,163.75485 239.588782,162.878756 241.578204,162.771102 L241.578204,162.771102 Z" id="14" stroke="#979797"></path>
                    <g id="13" transform="translate(168.983464, 161.000000)">
                        <circle id="13-b" cx="28" cy="10" r="10"></circle>
                        <circle id="13-a" cx="10" cy="10" r="10"></circle>
                    </g>
                    <circle id="12" cx="161.983464" cy="171" r="10"></circle>
                    <path d="M316.830059,113.201841 C318.809745,113.13847 320.643387,113.850366 322.028633,115.07109 C323.41388,116.291815 324.350731,118.021366 324.536837,119.993304 L324.536837,119.993304 L324.694729,121.666285 C324.889326,123.72819 324.229748,125.673771 323.006045,127.152525 C321.7848,128.628308 320.001694,129.639138 317.945031,129.83662 L317.945031,129.83662 L263.307344,132.208665 C261.238208,132.298101 259.328705,131.540388 257.914128,130.243032 C256.501812,128.94775 255.582839,127.114549 255.490896,125.049464 L255.490896,125.049464 L255.483464,122.42936 C255.483464,120.405001 256.286813,118.563345 257.595993,117.211587 C258.905172,115.859828 260.720183,114.997968 262.743505,114.933199 L262.743505,114.933199 Z" id="11" stroke="#979797"></path>
                    <rect id="10" stroke="#979797" x="162.483464" y="120.5" width="79" height="19" rx="4"></rect>
                    <path d="M263.524978,79.4121796 C275.103461,79.6552027 292.40522,80.5526192 315.430268,82.1040625 C317.564168,82.2478441 319.452754,83.2182075 320.796102,84.6871809 C322.139451,86.1561546 322.937561,88.1237386 322.89051,90.2619604 C322.839968,92.5587966 321.93652,94.5614946 320.50699,95.9833294 C319.062442,97.4201007 317.082085,98.2618517 314.923025,98.2144124 L314.923025,98.2144124 L262.059503,96.1618778 Z" id="9" stroke="#979797" transform="translate(292.542269, 88.970093) rotate(-5.000000) translate(-292.542269, -88.970093) "></path>
                    <path d="M206.116358,83.7397589 L262.606973,84.4785031 L261.142421,101.218406 L206.614092,100.560607 L206.116358,83.7397589 Z" id="8" stroke="#979797" transform="translate(234.376575, 92.478471) rotate(-5.000000) translate(-234.376575, -92.478471) "></path>
                    <path d="M205.418259,89.1571561 C205.736202,94.5916312 205.902108,100.202494 205.916026,105.989744 L205.916026,105.989744 L146.933854,107.592981 C144.788441,107.651296 142.822497,106.83449 141.378328,105.466752 C139.935525,104.100309 139.013509,102.183975 138.953616,100.041022 L138.953616,100.041022 L138.950578,98.7902953 C138.950577,96.7184779 139.74157,94.818107 141.048481,93.3898071 C142.355392,91.9615069 144.178221,91.0052779 146.241894,90.8217448 C157.507536,89.8198326 177.234691,89.2651687 205.418259,89.1571561 Z" id="7" stroke="#979797" transform="translate(172.433708, 98.489110) rotate(-5.000000) translate(-172.433708, -98.489110) "></path>
                    <path d="M263.52344,46.4261481 L315.32003,49.2163337 C317.476506,49.3324991 319.392197,50.2940624 320.756891,51.7663546 C322.121585,53.2386468 322.935283,55.2216678 322.887772,57.3807486 C322.838794,59.6065551 321.938707,61.5662606 320.516712,62.961091 C319.086418,64.364061 317.129046,65.1943803 314.98702,65.1488908 L314.98702,65.1488908 L262.10139,62.680313 L263.52344,46.4261481 Z" id="6" stroke="#979797" transform="translate(292.563349, 55.968220) rotate(-5.000000) translate(-292.563349, -55.968220) "></path>
                    <path d="M206.890937,50.6408599 L262.581548,51.4451012 L261.159487,67.699326 L208.160925,66.762616 L206.890937,50.6408599 Z" id="5" stroke="#979797" transform="translate(234.737949, 59.170238) rotate(-5.000000) translate(-234.737949, -59.170238) "></path>
                    <path d="M146.322241,58.1179397 C170.229072,56.2706878 190.189191,55.56623 206.201801,56.0058074 C206.663537,60.2399693 207.086457,65.6244243 207.470829,72.1591479 L207.470829,72.1591479 L146.913771,74.435679 C144.792711,74.5154162 142.840132,73.7278753 141.397884,72.3901352 C139.957397,71.0540293 139.025995,69.1690676 138.944276,67.0511683 L138.944276,67.0511683 L138.938554,66.0941622 C138.938556,64.0045459 139.742774,62.0909813 141.067845,60.6595752 C142.392915,59.2281694 144.238836,58.2789219 146.322241,58.1179397 Z" id="4" stroke="#979797" transform="translate(173.219148, 65.316860) rotate(-5.000000) translate(-173.219148, -65.316860) "></path>
                    <path d="M342.356029,37.1974277 L236.983464,37.1974277 L236.983464,0.599508843 L341.35034,0.00572178956 C341.902616,0.00257966019 342.352871,0.447740465 342.356013,1.00001628 C342.356024,1.0019127 342.356029,1.00380915 342.356029,1.00570561 L342.356029,37.1974277 L342.356029,37.1974277 Z" id="3" stroke="#979797"></path>
                    <polygon id="2" stroke="#979797" points="235.983464 14.670609 137.722754 14.670609 135.368096 4.22839742 235.983464 4.22839742"></polygon>
                    <path d="M85.8397641,16.1056075 L77.9626114,14.670609 L1.58159585,44.227969 C0.669136026,44.5810659 0.146076314,45.5424655 0.345271637,46.5003703 L12.1682586,103.355601 C12.2391502,103.696509 12.3978172,104.013003 12.6285632,104.273772 L26.4198992,119.859553 L26.4198992,119.859553 C27.3185578,120.258008 28.0188623,120.457236 28.5208128,120.457236 C29.0227633,120.457236 29.7687331,120.258008 30.7587221,119.859553 L34.7922072,118.426968 L107.81462,89.1211705 C109.389219,89.1211705 109.389219,85.901301 107.81462,79.4615619 C103.490432,65.0936377 96.1654797,43.9749862 85.8397641,16.1056075 Z" id="1" stroke="#979797"></path>
                </g>
            </g>
        </g>
    </g>
</svg>
