<?xml version="1.0" encoding="UTF-8"?>
<svg width="474px" height="69px" viewBox="0 0 474 69" version="1.1" xmlns="http://www.w3.org/2000/svg" xmlns:xlink="http://www.w3.org/1999/xlink">
    <title>manuva</title>
    <g id="Page-1" stroke="none" stroke-width="1" fill="none" fill-rule="evenodd">
        <g id="board" stroke="#979797">
            <g id="holds" transform="translate(9.522145, 0.497496)">
                <g id="left" transform="translate(-0.000000, 0.000000)" fill="#979797">
                    <path d="M98.2867945,2.84217094e-14 C106.464058,0.826176091 111.861078,2.33002007 114.477855,4.51153193 C116.152075,5.90726836 116.571564,8.83348652 117.269682,11.9846435 C115.408464,11.9846435 76.3185701,11.6629732 7.10542736e-15,11.0196325 C1.20636153,9.46066739 3.58492869,7.47536261 7.13570147,5.0637182 C7.94419116,4.62694591 9.0955937,3.91395821 10.4722203,3.26233757 C12.1984591,2.44522946 14.2203615,1.68726203 15.6986308,1.26621382 C16.6315179,1.00050414 17.8986039,0.646650224 19.741362,0.390963335 C20.526551,0.282016565 21.9304221,0.151695453 23.9529753,2.84217094e-14 L98.2867945,2.84217094e-14 Z" id="1"></path>
                </g>
            </g>
        </g>
    </g>
</svg>
