<?xml version="1.0" encoding="UTF-8"?>
<svg width="990px" height="267px" viewBox="0 0 990 267" version="1.1" xmlns="http://www.w3.org/2000/svg" xmlns:xlink="http://www.w3.org/1999/xlink">
    <title>mountain_rocks_wildwood_2001 2</title>
    <g id="Page-1" stroke="none" stroke-width="1" fill="none" fill-rule="evenodd">
        <g id="board" transform="translate(1.399200, 1.000000)">
            <g id="background" transform="translate(0.000000, 0.118360)" stroke="#979797">
                <path d="M7.01481295,264.396329 C6.94863266,264.396469 6.88245372,264.39567 6.81629609,264.393933 C2.95163433,264.292449 -0.0990244233,261.077253 0.0024603555,257.212592 C1.20001529,211.607679 2.73049109,166.331339 4.59388775,121.383572 C4.94447222,112.926978 6.01222456,110.038489 7.22574139,104.521003 C8.0347526,100.84268 9.51397676,95.7492197 11.6634139,89.2406235 C20.5039383,67.6237157 33.2975607,49.3531869 50.044281,34.4290371 C72.980675,10.425072 112.980811,1.58595583 126.484394,0.984406548 C135.388241,0.674048574 146.888834,0.0220549281 161.675994,1.29982626e-14 L163.27294,9.17108108e-05 C174.540036,0.0182266715 187.669684,0.410220396 202.9529,1.58595583 C209.949354,2.55037015 213.600789,8.11795008 216.03196,12.0035723 C218.850707,16.5086376 219.979294,24.3841443 221.703558,26.0927594 C224.812234,29.1732213 228.893395,30.0821756 231.40555,30.7105402 C237.810509,32.312611 247.03054,27.1339672 259.065643,15.1746089 L259.065643,15.1746089 L728.135956,15.1746089 C740.171059,27.1339672 749.39109,32.312611 755.79605,30.7105402 C758.308205,30.0821756 762.389365,29.1732213 765.498041,26.0927594 C767.222306,24.3841443 768.350892,16.5086376 771.169639,12.0035723 C773.60081,8.11795008 777.252246,2.55037015 784.248699,1.58595583 C799.531916,0.410220396 812.661563,0.0182266715 823.928659,9.17108108e-05 L825.525605,1.29982626e-14 C840.312765,0.0220549281 851.813359,0.674048574 860.717206,0.984406548 C874.220789,1.58595583 914.220924,10.425072 937.157318,34.4290371 C953.904039,49.3531869 966.697661,67.6237157 975.538186,89.2406235 C977.687623,95.7492197 979.166847,100.84268 979.975858,104.521003 C981.189375,110.038489 982.257127,112.926978 982.607712,121.383572 C984.471108,166.331339 986.001584,211.607679 987.199139,257.212592 C987.300624,261.077253 984.249965,264.292449 980.385303,264.393933 C980.319146,264.39567 980.252967,264.396469 980.186787,264.396329 L493.6008,263.369994 Z" id="Combined-Shape" fill="#D8D8D8"></path>
                <path d="M92.7817506,264.396345 L97.36019,199.097229 C97.5438404,196.477949 99.7222354,194.446944 102.347945,194.446944 L884.271201,194.446944 C886.848504,194.446944 889.003553,196.406002 889.248557,198.971632 L895.496281,264.396345 L895.496281,264.396345" id="Path-2"></path>
                <g id="logo" transform="translate(247.600800, 57.881640)">
                    <path d="M32.6566977,6 L30.4342824,6 L25,13.9984173 C25,15.1038609 25.8961391,16 27.0015827,16 L28.8283488,16 L28.8283488,16 L34,8.09760569 L32.6566977,6 Z" id="Path" fill="#979797"></path>
                    <path d="M29.1340244,15.7446753 L29.1340244,28.4915956 L25,36.591009 C25.1791837,38.2313119 26.654169,39.4157831 28.2944719,39.2365994 C28.4305622,39.2217332 28.5654698,39.1975308 28.6982411,39.1641633 L28.7450602,39.152397 L28.7450602,39.152397 L32.5161497,30.9332178 L32.8985772,22.9286937 L39.4040125,25.9196833 L39.801792,30.9332178 C40.4420086,31.9307784 41.7696894,32.220463 42.76725,31.5802464 C42.9101382,31.4885433 43.0416401,31.380209 43.1589977,31.2575155 L43.469192,30.9332178 L43.469192,30.9332178 L42.9498442,24.4705439 L41.6434131,22.1937185 L37.003262,19.5805537 L37.003262,17.7452414 L39.4040125,13.9672635 L40.7891732,13.9672635 L42.0245929,15.7446753 L43.9578893,16.5583139 L47.1017035,17.7452414 L48.6214985,17.2145875 L49,15.0734152 L47.6228428,14.6241041 L46.4767009,14.6241041 L45.3469003,13.9672635 L44.4716222,13.4110058 L43.9578893,13.4110058 L43.469192,12.5579961 L42.565135,12.5579961 L42.0245929,11.581637 L41.274408,10.899633 L40.7891732,10.5015664 L40.7891732,9.42190253 L39.801792,8.81155973 L39.4040125,8.25082987 L39.4040125,7.63809243 L38.4134495,7.63809243 L37.949507,7 L37.003262,7 L36.065796,7 L34.9714722,7 L34.2155497,7 L29.1340244,15.7446753 Z" id="Path-5" fill="#979797"></path>
                    <circle id="Oval" fill="#979797" cx="39" cy="3" r="2.5"></circle>
                    <polyline id="Path-6" fill="#979797" points="59.3808694 0.974580676 59.979907 1.18326343 61 1.53862647 61 39 35 39 35 36.5187235 37.9084082 36.5187235 37.9084082 35.3799168 41.7874961 35.3799168 41.7874961 34.7823778 44.2959762 34.7823778 44.2959762 33.8547543 45.0957838 33.8547543 45.0957838 31.3827951 46.0671835 31.3827951 48 31.3827951 48.8465288 31.3827951 48.8465288 30.098332 50.7416839 30.098332 51.6553458 30.098332 51.6553458 29.3506008 52.6522993 29.3506008 53.0719725 29.3506008 53.0719725 28.2625301 53.0719725 27.6181248 54.0256723 27.6181248 54.0256723 26.810599 54.0256723 25.6109283 53.0719725 25.6109283 53.0719725 24.6773665 52.6522993 24.6773665 52.1855737 24.1317513 52.1855737 23.2241119 51.6553458 22.3788704 51.2612573 21.7523326 50.7416839 21.7523326 50.7416839 20.4883269 50.7416839 19.9865157 50.7416839 18.8983344 51.2612573 18.4685526 51.2612573 17.9394024 51.2612573 16.8792613 52.1855737 16.8792613 52.1855737 15.6757821 52.1855737 14.2211427 53.0719725 14.2211427 53.0719725 12.6986886 54.0256723 12.6986886 54.0256723 11.8776253 54.7268297 11.8776253 54.7268297 10.94746 55.58411 10.94746 55.58411 9.92041104 56.7314529 9.92041104 56.7314529 6.6018736 57.7010636 6.6018736 57.7010636 3.76955993 58.3745956 3.07909346 58.3745956 1.53862647 58.3745956 -2.84217094e-14 59.3808694 -2.84217094e-14"></polyline>
                    <polyline id="Path-7" points="0 51.5 1.46292489 51.5 3 51.5"></polyline>
                    <polyline id="Path-8" points="1 51 1 44 3.51677832 50.1239024 4.49747208 50.1239024 6.98247569 44.394822 6.98247569 51 5.9128179 51 8 51"></polyline>
                    <ellipse id="Oval" cx="13" cy="48.5" rx="1.5" ry="2"></ellipse>
                    <ellipse id="Oval" cx="65" cy="49.5" rx="1.5" ry="2"></ellipse>
                    <path d="M17,46.364463 C17,46.364463 17.39801,46.364463 18.1940301,46.364463 C18.1940301,49.454821 18.1940301,51 18.1940301,51 C18.1940301,51 19.1293534,51 21,51 L21,46.4878573 L21,46" id="Path-9"></path>
                    <line x1="20" y1="46.5" x2="22" y2="46.5" id="Path-10"></line>
                    <polyline id="Path-12" points="32 45 32 51.5481492 33 52"></polyline>
                    <line x1="31" y1="46.5" x2="33" y2="46.5" id="Path-13"></line>
                    <path d="M36,47.794997 L36.7189292,47 L37.9861787,47 L39,47.794997 L39,51.8040623 L37.9861787,52 L36,52 C36,51.1109695 36,50.6664543 36,50.6664543 C36,50.6664543 36.2396431,50.2776362 36.7189292,49.5 L37.9861787,49.2626492 L38.5846933,49.2626492" id="Path-14"></path>
                    <line x1="42.5" y1="47" x2="42.5" y2="51" id="Path-15"></line>
                    <line x1="42.5" y1="45" x2="42.5" y2="44" id="Path-16"></line>
                    <path d="M24.6113364,52 C24.6113364,52 24.6113364,50.3333333 24.6113364,47 L24,47 L27.4540895,47 L28,47.8274216 L28,51.9055333" id="Path-11"></path>
                    <path d="M45.6113364,52 C45.6113364,52 45.6113364,50.3333333 45.6113364,47 L45,47 L48.4540895,47 L49,47.8274216 L49,51.9055333" id="Path-11"></path>
                    <polyline id="Path-17" points="56 51.5 56.9557773 51.5 58 51.5"></polyline>
                    <polyline id="Path-18" points="56 52 56 45 59.6546699 45 60 47.2924251 59.2471806 48.4926077 56.4350039 48.5"></polyline>
                    <polyline id="Path-19" points="60 48 60.7088561 51 62 51"></polyline>
                    <path d="M74,48.291831 L73.0468129,47.4381312 L71.802596,47 L70.857757,47.4381312 L70,48.2996464 L70,49.7190656 C70,50.4100124 70,50.7554859 70,50.7554859 C70,50.7554859 70.1922166,51.2278895 70.5249868,51.5076616 C70.7468336,51.6941763 71.1727033,51.8582891 71.802596,52 L72.5995779,52 L73.4059212,52 L74,51.7874337" id="Path-20"></path>
                    <g id="k" transform="translate(76.000000, 44.000000)">
                        <path d="M0.433126037,8 C0.433126037,8 0.433126037,6.99163735 0.433126037,5.18645914 C0.433126037,4.32135117 0.433126037,2.59253145 0.433126037,0" id="Path-21"></path>
                        <polyline id="Path-22" points="0.866252073 5.18645914 2.42214093 5.18645914 4 2.43685864"></polyline>
                        <line x1="2.43312604" y1="5.39243519" x2="4" y2="8" id="Path-23"></line>
                    </g>
                </g>
                <g id="Group" transform="translate(371.453428, 25.202286)">
                    <path d="M6.07368607,10.0276768 L-2.04281037e-14,28.6298255 L6.07368607,10.0276768 Z" id="Path"></path>
                    <path d="M6.07368607,10.0276768 C7.76916088,4.94768389 9.79372291,2.00640619 12.1473721,1.20384372 C14.5010214,0.401281239 18.9226768,0 25.4123384,0 L129.647372,0" id="Path-3"></path>
                </g>
                <g id="Group" transform="translate(549.600800, 39.701640) scale(-1, 1) translate(-549.600800, -39.701640) translate(484.600800, 25.201640)">
                    <path d="M6.07368607,10.0276768 L-2.04281037e-14,28.6298255 L6.07368607,10.0276768 Z" id="Path"></path>
                    <path d="M6.07368607,10.0276768 C7.76916088,4.94768389 9.79372291,2.00640619 12.1473721,1.20384372 C14.5010214,0.401281239 18.9226768,0 25.4123384,0 L129.647372,0" id="Path-3"></path>
                </g>
            </g>
            <g id="left" transform="translate(25.600800, 0.000000)">
                <rect id="12" stroke="#979797" x="357.5" y="202.5" width="103" height="41" rx="20.5"></rect>
                <rect id="11" stroke="#979797" x="259.5" y="202.5" width="79" height="41" rx="20.5"></rect>
                <rect id="10" stroke="#979797" x="86.5" y="202.5" width="154" height="41" rx="20.5"></rect>
                <circle id="9" stroke="#979797" cx="18.5" cy="222.5" r="18"></circle>
                <rect id="8" stroke="#979797" x="273.5" y="125.5" width="103" height="41" rx="20.5"></rect>
                <rect id="7" stroke="#979797" x="179.5" y="125.5" width="73" height="41" rx="20.5"></rect>
                <rect id="6" stroke="#979797" x="13.5" y="125.5" width="145" height="41" rx="20.5"></rect>
                <rect id="5" stroke="#979797" x="353.5" y="62.5" width="108" height="41" rx="20.5"></rect>
                <rect id="4" stroke="#979797" x="26.5" y="62.5" width="139" height="41" rx="20.5"></rect>
                <path d="M474.5,15.2929688 L357.445533,15.2929688 L351.926314,35.3483224 C354.152902,30.3791799 356.177464,27.4379022 358,26.5244893 C359.822536,25.6110763 363.910858,25.2097951 370.264966,25.3206456 L474.5,25.3206456 L474.5,15.2929688 Z" id="3"></path>
                <path d="M358.160212,15.2929688 L233.464844,15.2929688 C221.42974,27.252327 212.209709,32.4309708 205.80475,30.8289 C204.12998,30.4099903 200.912446,38.1171806 196.152147,53.950471 L345.852628,53.950471 L358.160212,15.2929688 Z" id="2"></path>
                <path d="M196.102758,26.2111192 C194.378494,24.5025041 193.249907,16.6269974 190.431161,12.1219321 C187.999989,8.23630988 184.348554,2.66872995 177.3521,1.70431563 C140.96349,-1.09505445 116.783321,0.548555681 100.883594,1.10276635 C87.3800112,1.70431563 47.3798753,10.5434318 24.4434813,34.5473969 C54.6416915,38.0139887 199.211434,29.2915811 196.102758,26.2111192 Z" id="1"></path>
            </g>
            <g id="right" transform="translate(723.100800, 122.000000) scale(-1, 1) translate(-723.100800, -122.000000) translate(485.600800, 0.000000)">
                <rect id="24" stroke="#979797" x="357.5" y="202.5" width="103" height="41" rx="20.5"></rect>
                <rect id="23" stroke="#979797" x="259.5" y="202.5" width="79" height="41" rx="20.5"></rect>
                <rect id="22" stroke="#979797" x="86.5" y="202.5" width="154" height="41" rx="20.5"></rect>
                <circle id="21" stroke="#979797" cx="18.5" cy="222.5" r="18"></circle>
                <rect id="20" stroke="#979797" x="273.5" y="125.5" width="103" height="41" rx="20.5"></rect>
                <rect id="19" stroke="#979797" x="179.5" y="125.5" width="73" height="41" rx="20.5"></rect>
                <rect id="18" stroke="#979797" x="13.5" y="125.5" width="145" height="41" rx="20.5"></rect>
                <rect id="17" stroke="#979797" x="353.5" y="62.5" width="108" height="41" rx="20.5"></rect>
                <rect id="16" stroke="#979797" x="26.5" y="62.5" width="139" height="41" rx="20.5"></rect>
                <path d="M474.5,15.2929688 L357.445533,15.2929688 L351.926314,35.3483224 C354.152902,30.3791799 356.177464,27.4379022 358,26.5244893 C359.822536,25.6110763 363.910858,25.2097951 370.264966,25.3206456 L474.5,25.3206456 L474.5,15.2929688 Z" id="15"></path>
                <path d="M358.160212,15.2929688 L233.464844,15.2929688 C221.42974,27.252327 212.209709,32.4309708 205.80475,30.8289 C204.12998,30.4099903 200.912446,38.1171806 196.152147,53.950471 L345.852628,53.950471 L358.160212,15.2929688 Z" id="14"></path>
                <path d="M196.102758,26.2111192 C194.378494,24.5025041 193.249907,16.6269974 190.431161,12.1219321 C187.999989,8.23630988 184.348554,2.66872995 177.3521,1.70431563 C140.96349,-1.09505445 116.783321,0.548555681 100.883594,1.10276635 C87.3800112,1.70431563 47.3798753,10.5434318 24.4434813,34.5473969 C54.6416915,38.0139887 199.211434,29.2915811 196.102758,26.2111192 Z" id="13"></path>
            </g>
            <g id="middle" transform="translate(422.600800, 125.000000)" stroke="#979797">
                <rect id="25" x="0.5" y="0.5" width="154" height="41" rx="20.5"></rect>
            </g>
        </g>
    </g>
</svg>