<?xml version="1.0" encoding="UTF-8"?>
<svg width="713px" height="239px" viewBox="0 0 713 239" version="1.1" xmlns="http://www.w3.org/2000/svg" xmlns:xlink="http://www.w3.org/1999/xlink">
    <title>rock_prodigy_training_center 2</title>
    <g id="Page-1" stroke="none" stroke-width="1" fill="none" fill-rule="evenodd">
        <g id="board" transform="translate(1.016536, 1.000000)">
            <g id="board-left" transform="translate(-0.000000, 0.000000)">
                <g id="left" transform="translate(0.000000, 0.000000)" fill="#979797" >
                    <path d="M267.056667,161.392369 C269.122209,161.280596 271.037956,162.015666 272.466143,163.295017 C273.894331,164.574368 274.834959,166.398 274.950265,168.463348 L274.950265,168.463348 L275.045897,170.176285 C275.159943,172.219072 274.444764,174.119053 273.190941,175.545611 C271.937118,176.97217 270.144651,177.925307 268.104123,178.074408 L268.104123,178.074408 L242.530029,179.943098 C240.464468,180.094028 238.533277,179.393435 237.080744,178.138719 C235.628211,176.884004 234.654336,175.075166 234.503406,173.009605 C234.490116,172.82772 234.483464,172.64541 234.483464,172.46304 L234.483464,172.46304 L234.483464,170.260145 C234.483464,168.267811 235.262438,166.449378 236.538767,165.102114 C237.815096,163.75485 239.588782,162.878756 241.578204,162.771102 L241.578204,162.771102 Z" id="14" stroke="#979797"></path>
                </g>
            </g>
        </g>
    </g>
</svg>
