<?xml version="1.0" encoding="UTF-8"?>
<svg width="713px" height="239px" viewBox="0 0 713 239" version="1.1" xmlns="http://www.w3.org/2000/svg" xmlns:xlink="http://www.w3.org/1999/xlink">
    <title>rock_prodigy_training_center 2</title>
    <g id="Page-1" stroke="none" stroke-width="1" fill="none" fill-rule="evenodd">
        <g id="board" transform="translate(1.016536, 1.000000)">
            <g id="board-left" transform="translate(-0.000000, 0.000000)">
                <g id="left" transform="translate(0.000000, 0.000000)" fill="#979797" >
                    <path d="M269.056667,204.392369 C271.122209,204.280596 273.037956,205.015666 274.466143,206.295017 C275.894331,207.574368 276.834959,209.398 276.950265,211.463348 L276.950265,211.463348 L277.045897,213.176285 C277.159943,215.219072 276.444764,217.119053 275.190941,218.545611 C273.937118,219.97217 272.144651,220.925307 270.104123,221.074408 L270.104123,221.074408 L244.530029,222.943098 C242.464468,223.094028 240.533277,222.393435 239.080744,221.138719 C237.628211,219.884004 236.654336,218.075166 236.503406,216.009605 C236.490116,215.82772 236.483464,215.64541 236.483464,215.46304 L236.483464,215.46304 L236.483464,213.260145 C236.483464,211.267811 237.262438,209.449378 238.538767,208.102114 C239.815096,206.75485 241.588782,205.878756 243.578204,205.771102 L243.578204,205.771102 Z" id="17" stroke="#979797"></path>
                </g>
            </g>
        </g>
    </g>
</svg>
