<?xml version="1.0" encoding="UTF-8"?>
<svg width="713px" height="239px" viewBox="0 0 713 239" version="1.1" xmlns="http://www.w3.org/2000/svg" xmlns:xlink="http://www.w3.org/1999/xlink">
    <title>rock_prodigy_training_center 2</title>
    <g id="Page-1" stroke="none" stroke-width="1" fill="none" fill-rule="evenodd">
        <g id="board" transform="translate(1.016536, 1.000000)">
            <g id="board-right" transform="translate(540.161478, 118.541890) scale(-1, 1) translate(-540.161478, -118.541890) translate(368.983464, -0.000000)">
                <g id="right" transform="translate(0.000000, 0.000000)" fill="#979797">
                    <path d="M85.8397641,16.1056075 L77.9626114,14.670609 L1.58159585,44.227969 C0.669136026,44.5810659 0.146076314,45.5424655 0.345271637,46.5003703 L12.1682586,103.355601 C12.2391502,103.696509 12.3978172,104.013003 12.6285632,104.273772 L26.4198992,119.859553 L26.4198992,119.859553 C27.3185578,120.258008 28.0188623,120.457236 28.5208128,120.457236 C29.0227633,120.457236 29.7687331,120.258008 30.7587221,119.859553 L34.7922072,118.426968 L107.81462,89.1211705 C109.389219,89.1211705 109.389219,85.901301 107.81462,79.4615619 C103.490432,65.0936377 96.1654797,43.9749862 85.8397641,16.1056075 Z" id="18" stroke="#979797"></path>
                </g>
            </g>
        </g>
    </g>
</svg>
