<?xml version="1.0" encoding="UTF-8"?>
<svg width="713px" height="239px" viewBox="0 0 713 239" version="1.1" xmlns="http://www.w3.org/2000/svg" xmlns:xlink="http://www.w3.org/1999/xlink">
    <title>rock_prodigy_training_center 2</title>
    <g id="Page-1" stroke="none" stroke-width="1" fill="none" fill-rule="evenodd">
        <g id="board" transform="translate(1.016536, 1.000000)">
            <g id="board-right" transform="translate(540.161478, 118.541890) scale(-1, 1) translate(-540.161478, -118.541890) translate(368.983464, -0.000000)">
                <g id="right" transform="translate(0.000000, 0.000000)" fill="#979797">
                    <path d="M146.322241,58.1179397 C170.229072,56.2706878 190.189191,55.56623 206.201801,56.0058074 C206.663537,60.2399693 207.086457,65.6244243 207.470829,72.1591479 L207.470829,72.1591479 L146.913771,74.435679 C144.792711,74.5154162 142.840132,73.7278753 141.397884,72.3901352 C139.957397,71.0540293 139.025995,69.1690676 138.944276,67.0511683 L138.944276,67.0511683 L138.938554,66.0941622 C138.938556,64.0045459 139.742774,62.0909813 141.067845,60.6595752 C142.392915,59.2281694 144.238836,58.2789219 146.322241,58.1179397 Z" id="21" stroke="#979797" transform="translate(173.219148, 65.316860) rotate(-5.000000) translate(-173.219148, -65.316860) "></path>
                </g>
            </g>
        </g>
    </g>
</svg>
