<?xml version="1.0" encoding="UTF-8"?>
<svg width="713px" height="239px" viewBox="0 0 713 239" version="1.1" xmlns="http://www.w3.org/2000/svg" xmlns:xlink="http://www.w3.org/1999/xlink">
    <title>rock_prodigy_training_center 2</title>
    <g id="Page-1" stroke="none" stroke-width="1" fill="none" fill-rule="evenodd">
        <g id="board" transform="translate(1.016536, 1.000000)">
            <g id="board-right" transform="translate(540.161478, 118.541890) scale(-1, 1) translate(-540.161478, -118.541890) translate(368.983464, -0.000000)">
                <g id="right" transform="translate(0.000000, 0.000000)" fill="#979797">
                    <path d="M316.830059,113.201841 C318.809745,113.13847 320.643387,113.850366 322.028633,115.07109 C323.41388,116.291815 324.350731,118.021366 324.536837,119.993304 L324.536837,119.993304 L324.694729,121.666285 C324.889326,123.72819 324.229748,125.673771 323.006045,127.152525 C321.7848,128.628308 320.001694,129.639138 317.945031,129.83662 L317.945031,129.83662 L263.307344,132.208665 C261.238208,132.298101 259.328705,131.540388 257.914128,130.243032 C256.501812,128.94775 255.582839,127.114549 255.490896,125.049464 L255.490896,125.049464 L255.483464,122.42936 C255.483464,120.405001 256.286813,118.563345 257.595993,117.211587 C258.905172,115.859828 260.720183,114.997968 262.743505,114.933199 L262.743505,114.933199 Z" id="28" stroke="#979797"></path>
                </g>
            </g>
        </g>
    </g>
</svg>
